<svg width="57" height="56" viewBox="0 0 57 56" fill="none" xmlns="http://www.w3.org/2000/svg">
<g clip-path="url(#clip0_325_44)">
<path d="M10.0938 4.51369e-06H46.9063C48.2321 -0.0012547 49.5452 0.260965 50.7704 0.771657C51.9956 1.28235 53.1089 2.03149 54.0464 2.9762C54.9839 3.92091 55.7274 5.04264 56.2342 6.27721C56.741 7.51177 57.0013 8.83492 57 10.1709V45.8291C57.0013 47.1651 56.741 48.4882 56.2342 49.7228C55.7274 50.9574 54.9839 52.0791 54.0464 53.0238C53.1089 53.9685 51.9956 54.7177 50.7704 55.2284C49.5452 55.739 48.2321 56.0013 46.9063 56H10.0938C8.76787 56.0013 7.45476 55.739 6.22957 55.2284C5.00437 54.7177 3.89115 53.9685 2.95361 53.0238C2.01607 52.0791 1.27262 50.9574 0.7658 49.7228C0.258984 48.4882 -0.00124517 47.1651 4.47943e-06 45.8291V10.1709C-0.00124517 8.83492 0.258984 7.51177 0.7658 6.27721C1.27262 5.04264 2.01607 3.92091 2.95361 2.9762C3.89115 2.03149 5.00437 1.28235 6.22957 0.771657C7.45476 0.260965 8.76787 -0.0012547 10.0938 4.51369e-06Z" fill="#49021F"/>
<path d="M20.7098 14.6461V39.1999C20.7098 39.4632 20.5911 39.5828 20.3773 39.5828H15.7223C15.5086 39.5828 15.4136 39.4632 15.4136 39.1999V14.6461C15.4136 14.4307 15.5323 14.335 15.7461 14.335H20.3773C20.4133 14.3292 20.4501 14.331 20.4854 14.3401C20.5207 14.3491 20.5539 14.3654 20.5828 14.3877C20.6116 14.4101 20.6357 14.4382 20.6535 14.4703C20.6712 14.5024 20.6823 14.5378 20.6861 14.5743C20.6951 14.5837 20.7018 14.5951 20.7059 14.6075C20.7101 14.6199 20.7114 14.6331 20.7098 14.6461ZM34.3898 39.9657C32.6293 39.9948 30.8847 39.6269 29.2836 38.8888C27.7939 38.1869 26.5454 37.0538 25.6973 35.6341C24.8186 34.1743 24.3911 32.3555 24.3911 30.1777C24.367 28.4067 24.8183 26.662 25.6973 25.1281C26.5986 23.5692 27.904 22.2869 29.4736 21.4187C31.1361 20.4854 33.1311 20.0307 35.4823 20.0307C35.6489 20.0288 35.8154 20.0368 35.9811 20.0546C36.1948 20.0786 36.4323 20.0786 36.7173 20.1025V12.5401C36.7173 12.3726 36.7886 12.2768 36.9548 12.2768H41.7761C41.8293 12.2696 41.8833 12.2828 41.9273 12.3138C41.9713 12.3449 42.0021 12.3915 42.0136 12.4444V35.2751C42.0136 35.7059 42.0373 36.1845 42.0611 36.711C42.0848 37.2375 42.1323 37.6922 42.1561 38.0991C42.1611 38.1799 42.141 38.2603 42.0984 38.329C42.0558 38.3976 41.9929 38.4511 41.9186 38.482C40.6746 39.0088 39.3761 39.3941 38.0473 39.6307C36.8404 39.8511 35.6164 39.9632 34.3898 39.9657ZM36.7173 35.1794V24.6495C36.5059 24.5981 36.2918 24.5581 36.0761 24.5298C35.8148 24.5059 35.5536 24.482 35.2923 24.482C34.3614 24.4714 33.4413 24.6847 32.6086 25.1042C31.797 25.5117 31.1021 26.1213 30.5898 26.8751C30.0673 27.641 29.8061 28.67 29.8061 29.9145C29.7854 30.7544 29.9224 31.5907 30.2098 32.3794C30.4395 33.0172 30.8042 33.597 31.2786 34.0786C31.7365 34.5189 32.2892 34.8465 32.8936 35.0358C33.5298 35.2458 34.1954 35.3508 34.8648 35.3469C35.2211 35.3469 35.5536 35.323 35.8623 35.2991C36.1525 35.3216 36.4442 35.2808 36.7173 35.1794Z" fill="#FF3366"/>
</g>
<defs>
<clipPath id="clip0_325_44">
<rect width="57" height="56" fill="white"/>
</clipPath>
</defs>
</svg>
