<svg width="58" height="56" viewBox="0 0 58 56" fill="none" xmlns="http://www.w3.org/2000/svg">
<g clip-path="url(#clip0_150_75)">
<path d="M10.1689 0.00585938H47.2552C52.878 0.00585938 57.4241 4.55201 57.4241 10.1748V45.8255C57.4241 51.4482 52.878 55.9944 47.2552 55.9944H10.1689C4.54615 55.9944 0 51.4482 0 45.8255V10.1748C0 4.55201 4.54615 0.00585938 10.1689 0.00585938Z" fill="#00005B"/>
<path d="M23.0654 33.5032H14.1646L12.3461 39.1498C12.2983 39.365 12.1068 39.5086 11.8915 39.4847H7.3934C7.13017 39.4847 7.0585 39.3411 7.13017 39.054L14.8346 16.9696C14.9063 16.7303 14.9782 16.5151 15.074 16.2279C15.1698 15.7256 15.2176 15.1991 15.2176 14.6727C15.1937 14.553 15.2892 14.4333 15.4089 14.4094H21.6059C21.7733 14.4094 21.893 14.4811 21.9169 14.6008L30.6502 39.006C30.7221 39.2692 30.6502 39.3889 30.4108 39.3889H25.4101C25.2427 39.4128 25.0752 39.2931 25.0272 39.1257L23.0651 33.3833V33.5029L23.0654 33.5032ZM15.5524 28.7418H21.6298C21.4862 28.2394 21.2949 27.6411 21.0794 27.0191C20.8639 26.3732 20.6487 25.6792 20.4335 24.9614C20.1942 24.2198 19.9789 23.502 19.7396 22.7603C19.5002 22.0186 19.285 21.3247 19.0937 20.6308C18.9023 19.9607 18.7349 19.3387 18.5672 18.7645H18.5194C18.304 19.7933 18.041 20.8221 17.7059 21.8511C17.3471 22.9996 16.988 24.1959 16.6051 25.3924C16.2941 26.6125 15.9112 27.7371 15.5524 28.742V28.7418ZM44.743 31.3498H37.1582C37.2539 32.0915 37.493 32.8331 37.8998 33.4793C38.3305 34.1252 38.9287 34.6278 39.6465 34.9149C40.6036 35.3217 41.6563 35.5369 42.709 35.513C43.5465 35.4891 44.3839 35.4172 45.1973 35.2498C45.939 35.154 46.6568 34.9627 47.3268 34.6994C47.4465 34.6036 47.5182 34.6517 47.5182 34.8908V38.5517C47.5182 38.6475 47.4943 38.743 47.4704 38.8388C47.4226 38.9107 47.3746 38.9585 47.3029 39.0062C46.5373 39.3411 45.7477 39.5805 44.9102 39.724C43.7856 39.9393 42.661 40.035 41.5125 40.0112C39.694 40.0112 38.1628 39.724 36.9186 39.1737C35.7462 38.6711 34.7174 37.8816 33.9038 36.9006C33.1382 35.9676 32.5879 34.9147 32.253 33.7662C31.9181 32.6416 31.7504 31.4692 31.7504 30.2729C31.7504 28.9809 31.9417 27.7128 32.3485 26.4685C32.7314 25.2722 33.3296 24.1715 34.1429 23.1905C34.9326 22.2333 35.9134 21.4678 37.038 20.9174C38.1626 20.3671 39.5024 20.1757 41.0338 20.1757C42.302 20.1518 43.5701 20.3912 44.7425 20.9174C45.7235 21.3481 46.5849 21.9942 47.2549 22.8315C47.8769 23.6451 48.3795 24.5542 48.6905 25.5591C49.0015 26.5163 49.1451 27.4971 49.1451 28.4781C49.1451 29.0523 49.1212 29.5549 49.0973 30.0095C49.0495 30.4641 49.0254 30.7992 49.0015 31.0144C48.9776 31.1819 48.8341 31.3254 48.6666 31.3254C48.5231 31.3254 48.2598 31.3493 47.8769 31.3732C47.494 31.421 47.0395 31.4451 46.4891 31.4451C45.9388 31.4451 45.3645 31.3493 44.7425 31.3493L44.743 31.3498ZM37.1582 27.8565H42.2066C42.8287 27.8565 43.2835 27.8565 43.5704 27.8327C43.7617 27.8088 43.9533 27.7608 44.1207 27.6413V27.402C44.1207 27.091 44.0729 26.8038 43.9771 26.5167C43.5465 25.1769 42.2783 24.2675 40.8666 24.3155C39.5507 24.2436 38.3064 24.9376 37.6844 26.134C37.3973 26.6844 37.2298 27.2586 37.1579 27.8568L37.1582 27.8565Z" fill="#9999FF"/>
</g>
<defs>
<clipPath id="clip0_150_75">
<rect width="57.4241" height="56" fill="white"/>
</clipPath>
</defs>
</svg>
