<svg width="25" height="25" viewBox="0 0 25 25" fill="none" xmlns="http://www.w3.org/2000/svg">
<path d="M7.6604 11.5698V9.89793C7.6604 9.79897 7.6604 9.75939 7.78957 9.75939C8.89686 9.75939 9.79686 9.69376 10.2437 9.95731C10.6917 10.2198 10.7104 10.5823 10.7177 10.6906C10.725 10.799 10.7219 10.9542 10.5135 11.3323C10.3052 11.7104 9.3729 11.7177 8.69998 11.7177H7.80936C7.69998 11.7177 7.6604 11.6781 7.6604 11.5698ZM10.7292 13.3219C10.8323 13.4536 10.906 13.6059 10.9451 13.7686C10.9842 13.9312 10.9879 14.1004 10.9559 14.2646C10.9239 14.4288 10.8569 14.5842 10.7596 14.7203C10.6622 14.8563 10.5367 14.9698 10.3917 15.0531C10.1785 15.1428 9.94993 15.1899 9.71873 15.1917H7.79894C7.69998 15.1917 7.6604 15.1917 7.6604 15.0636V13.0844C7.6604 12.9854 7.6604 12.9458 7.78957 12.9458H9.06561C9.85728 12.9458 10.3521 12.8771 10.7292 13.3219Z" fill="white"/>
<path d="M17.697 12.4052C17.6439 12.2801 17.5633 12.1685 17.4613 12.0787C17.3592 11.9889 17.2383 11.9232 17.1074 11.8865C16.8457 11.815 16.5719 11.7999 16.304 11.8421C16.0361 11.8843 15.7802 11.9828 15.5532 12.1313C15.327 12.3598 15.1808 12.6555 15.1365 12.974C15.1365 13.0854 15.1365 13.1063 15.2688 13.1063H17.7376C17.8595 13.1063 17.8595 13.1063 17.849 12.9531C17.8374 12.7617 17.7862 12.575 17.697 12.4052ZM17.697 12.4052C17.6439 12.2801 17.5623 12.1685 17.4602 12.0787C17.3582 11.9889 17.2383 11.9232 17.1074 11.8865C16.8457 11.815 16.5719 11.7999 16.304 11.8421C16.0361 11.8843 15.7802 11.9828 15.5532 12.1313C15.327 12.3598 15.1798 12.6555 15.1355 12.974C15.1355 13.0854 15.1355 13.1063 15.2678 13.1063H17.7376C17.8595 13.1063 17.8595 13.1063 17.849 12.9531C17.8374 12.7617 17.7841 12.575 17.6949 12.4052M18.8542 2.60419H6.66675C5.58931 2.60419 4.55599 3.0322 3.79413 3.79407C3.03226 4.55593 2.60425 5.58925 2.60425 6.66669V18.8542C2.60425 19.9316 3.03226 20.9649 3.79413 21.7268C4.55599 22.4887 5.58931 22.9167 6.66675 22.9167H18.8542C19.9317 22.9167 20.965 22.4887 21.7269 21.7268C22.4887 20.9649 22.9167 19.9316 22.9167 18.8542V6.66669C22.9167 5.58925 22.4887 4.55593 21.7269 3.79407C20.965 3.0322 19.9317 2.60419 18.8542 2.60419ZM14.873 9.07294C14.873 8.99273 14.873 8.96148 14.9647 8.96148H18.2553V9.81565C18.2553 9.81565 18.2584 9.87606 18.2042 9.87606H15.0157C14.873 9.87606 14.873 9.87606 14.873 9.7344V9.07294ZM11.8261 16.5386C10.5761 17.2188 8.47508 16.9448 5.98654 16.9448V8.52502H9.95737C10.973 8.52502 12.1813 8.77919 12.5063 9.85523C12.6751 10.3252 12.6648 10.8409 12.4775 11.3038C12.2901 11.7667 11.9388 12.1443 11.4907 12.3646C11.9038 12.5175 12.2644 12.7855 12.5299 13.1369C12.7954 13.4883 12.9547 13.9085 12.9889 14.3476C13.0231 14.7867 12.9308 15.2264 12.7229 15.6147C12.5149 16.003 12.2001 16.3236 11.8157 16.5386H11.8261ZM19.3928 14.1417H15.3303C15.2188 14.1417 15.1167 14.2021 15.1365 14.3448C15.2584 14.9438 15.5324 15.574 16.1532 15.6656C16.481 15.7632 16.8321 15.7482 17.1504 15.623C17.4687 15.4979 17.7359 15.2697 17.9095 14.975C17.9095 14.975 17.9605 14.9136 17.9907 14.9136H19.3115C19.3115 14.9136 19.3928 14.9136 19.372 14.9844C19.2327 15.3788 19.0265 15.7463 18.7626 16.0709C18.4096 16.4081 17.9836 16.6594 17.5177 16.8053C17.0519 16.9512 16.5586 16.9878 16.0763 16.9122C15.594 16.8367 15.1356 16.651 14.7367 16.3696C14.3378 16.0882 14.0091 15.7186 13.7761 15.2896C13.6328 15.0035 13.5435 14.6935 13.5126 14.375C13.3314 13.5746 13.4699 12.7351 13.8985 12.0352C14.3271 11.3354 15.012 10.8305 15.8074 10.6281C18.1126 10.1302 19.5751 11.7146 19.5751 13.949C19.5785 13.9751 19.5759 14.0016 19.5674 14.0266C19.5589 14.0515 19.5448 14.0742 19.5262 14.0928C19.5076 14.1114 19.4849 14.1255 19.46 14.134C19.435 14.1425 19.4085 14.1451 19.3824 14.1417H19.3928ZM17.1178 11.8865C16.8564 11.814 16.5824 11.799 16.3147 11.8427C16.047 11.8844 15.8074 11.9354 15.5636 12.1313C15.3199 12.3261 15.1907 12.6552 15.147 12.974C15.147 13.0854 15.147 13.1063 15.2792 13.1063H17.7376C17.8595 13.1063 17.8595 13.1063 17.849 12.9531C17.8374 12.7617 17.7862 12.575 17.697 12.4052C17.6439 12.2801 17.5633 12.1685 17.4613 12.0787C17.3592 11.9889 17.2383 11.9232 17.1074 11.8865H17.1178Z" fill="white"/>
</svg>
