<svg width="49" height="56" viewBox="0 0 49 56" fill="none" xmlns="http://www.w3.org/2000/svg">
<path d="M9.66856 44.9515L6.36975 7.9375H42.6302L39.327 44.9456L24.478 49.0625L9.66856 44.9515Z" fill="#1F78B9"/>
<path d="M24.5 45.9164L36.4997 42.5897L39.3226 10.9646H24.5V45.9164Z" fill="#33A9DC"/>
<path d="M24.5 24.3743H30.5072L30.9214 19.7257H24.5V15.1858H24.5162H35.8828L35.7741 16.4034L34.6593 28.9142H24.5V24.3743Z" fill="white"/>
<path d="M24.5279 36.1639L24.5074 36.1698L19.4519 34.8038L19.1288 31.1833H16.6716H14.5713L15.2073 38.3112L24.5059 40.8932L24.5279 40.8874V36.1639Z" fill="#EBEBEB"/>
<path d="M30.1209 28.7217L29.5745 34.8008L24.5117 36.1668V40.8903L33.8177 38.3112L33.8868 37.5445L34.6755 28.7217H30.1209Z" fill="white"/>
<path d="M24.5162 15.1858V18.0058V19.7139V19.7257H13.5652H13.5505L13.4595 18.7049L13.2524 16.4034L13.1437 15.1858H24.5162Z" fill="#EBEBEB"/>
<path d="M24.5001 24.3743V27.1943V28.9024V28.9142H19.5225H19.5078L19.4167 27.8934L19.2111 25.5919L19.1024 24.3743H24.5001Z" fill="#EBEBEB"/>
</svg>
