<svg width="56" height="56" viewBox="0 0 56 56" fill="none" xmlns="http://www.w3.org/2000/svg">
<path d="M41.0415 40.2989C41.3849 37.4407 41.2821 37.0212 43.411 37.4845L43.9513 37.5317C45.5884 37.6061 47.73 37.2683 48.9882 36.6838C51.6968 35.4269 53.3024 33.3291 50.6323 33.8799C44.5406 35.1368 44.1219 33.074 44.1219 33.074C50.5545 23.53 53.2433 11.4143 50.922 8.44846C44.5913 0.359523 33.6333 4.18459 33.45 4.28346L33.3913 4.2944C32.1878 4.04459 30.8407 3.8954 29.3274 3.8709C26.5707 3.8254 24.479 4.59365 22.8922 5.79677C22.8922 5.79677 3.34339 -2.25717 4.25295 15.9253C4.44633 19.7933 9.79695 45.1932 16.1792 37.5212C18.512 34.716 20.766 32.3438 20.766 32.3438C21.8851 33.0872 23.2256 33.4669 24.6308 33.3304L24.7398 33.2376C24.7056 33.5859 24.7205 33.9267 24.7831 34.3301C23.1394 36.1672 23.6224 36.4896 20.3355 37.166C17.0096 37.8511 18.9635 39.0713 20.2388 39.3902C21.7853 39.777 25.3628 40.3247 27.7804 36.9411L27.6841 37.327C28.329 37.8432 28.2857 41.0357 28.3767 43.3163C28.4681 45.5975 28.6208 47.7259 29.0859 48.9811C29.551 50.2363 30.0996 53.4681 34.4195 52.5423C38.0297 51.7706 40.7899 50.6572 41.0415 40.2989Z" fill="black"/>
<path d="M33.0129 54.7995C31.1024 54.7995 29.8581 54.0606 29.1025 53.347C27.962 52.2708 27.5096 50.8844 27.2392 50.0562L27.1224 49.7105C26.5782 48.2414 26.3935 46.1261 26.2842 43.4022C26.2675 42.9932 26.2562 42.5719 26.2435 42.1252C26.2343 41.7984 26.2229 41.3884 26.2063 40.9597C25.518 41.2879 24.7873 41.5187 24.0354 41.6457C22.6883 41.8758 21.2402 41.8014 19.7304 41.4239C18.6651 41.1574 17.5582 40.6053 16.9274 39.7526C15.0885 41.363 13.3346 41.1447 12.3791 40.8258C10.6934 40.2636 9.18491 38.6838 7.76697 35.9971C6.75679 34.083 5.77985 31.5893 4.86285 28.5845C3.26597 23.352 2.25141 17.8409 2.16129 16.0314C1.87779 10.3679 3.40247 6.31754 6.69204 3.99398C11.8812 0.328602 19.7435 2.48417 22.61 3.46285C24.5359 2.30217 26.8017 1.73735 29.362 1.77804C30.737 1.80035 32.0465 1.9211 33.2627 2.1381C34.5315 1.7391 37.0375 1.16642 39.9062 1.20229C45.1916 1.26529 49.5714 3.32504 52.5714 7.15885C54.7125 9.8941 53.6537 15.638 52.8325 18.8187C51.6767 23.2925 49.6515 28.0508 47.1638 32.193C47.8394 32.1979 48.818 32.1169 50.2093 31.8295C52.9542 31.2629 53.757 32.7347 53.9748 33.3935C54.8477 36.0369 51.0537 38.0345 49.8702 38.584C48.3538 39.288 45.8815 39.7167 43.8568 39.624L43.7684 39.6183L43.2364 39.5715L43.1839 40.0151L43.1332 40.4487C42.9971 45.6982 42.2472 49.0228 40.7042 51.2195C39.0867 53.5225 36.8389 54.1678 34.8587 54.5922C34.1832 54.7365 33.5694 54.7995 33.0129 54.7995ZM28.9923 35.6935C30.2256 36.6805 30.3337 38.5377 30.4303 42.0084C30.4426 42.4415 30.454 42.8514 30.4693 43.2342C30.5157 44.3936 30.6246 47.1083 31.0499 48.2554C31.1098 48.4177 31.1636 48.5822 31.2205 48.7568C31.6943 50.2076 31.9318 50.9351 33.9807 50.4972C35.7005 50.1284 36.5847 49.7976 37.2768 48.8124C38.2826 47.38 38.8452 44.4986 38.9485 40.2483L41.041 40.299L38.9629 40.0497L39.0242 39.5308C39.2232 37.8202 39.3667 36.5847 40.5099 35.7674C41.4273 35.112 42.4725 35.1755 43.3051 35.3255C42.3903 34.6343 42.1374 33.8236 42.07 33.4911L41.8955 32.6314L42.3859 31.9039C45.2108 27.7126 47.5401 22.5615 48.7773 17.7709C50.0487 12.8485 49.6611 10.2345 49.2735 9.7401C44.142 3.18329 35.2437 5.89054 34.3145 6.19767L34.1574 6.28254L33.3699 6.4291L32.9665 6.34554C31.8544 6.11454 30.6189 5.98679 29.2946 5.96535C27.2139 5.93035 25.5352 6.4221 24.1588 7.46642L23.2037 8.19048L22.0955 7.73417C19.7278 6.76598 12.7733 4.81954 9.10354 7.41873C7.06654 8.8616 6.1386 11.6887 6.3451 15.8218C6.41335 17.1864 7.34041 22.3519 8.86991 27.3617C10.9835 34.2852 12.9041 36.5851 13.706 36.8524C13.846 36.8997 14.2092 36.6175 14.5705 36.1835C16.0774 34.3773 17.6376 32.6163 19.2492 30.9029L20.461 29.6275L21.9262 30.601C22.5168 30.9934 23.1683 31.2161 23.8372 31.2581L27.3315 28.2779L26.8253 33.4439C26.814 33.5598 26.8083 33.7177 26.8538 34.0109L27.006 34.99L26.3454 35.7285L26.2693 35.8142L28.189 36.7002L28.9923 35.6935Z" fill="black"/>
<path d="M50.6324 33.8799C44.5402 35.1369 44.1215 33.0741 44.1215 33.0741C50.5541 23.5296 53.243 11.4134 50.9225 8.4485C44.5918 0.360004 33.6329 4.18507 33.45 4.28438L33.391 4.29488C32.1874 4.04507 30.8403 3.89632 29.3261 3.87182C26.5695 3.82675 24.4786 4.59457 22.8918 5.79769C22.8918 5.79769 3.34258 -2.25581 4.2517 15.9263C4.44508 19.7946 9.7957 45.1946 16.178 37.5226C18.5107 34.7173 20.7643 32.3452 20.7643 32.3452C21.8838 33.0885 23.2239 33.4683 24.6287 33.3318L24.7381 33.239C24.704 33.5873 24.7197 33.9281 24.7818 34.3314C23.1377 36.1685 23.6207 36.4909 20.3338 37.1673C17.0079 37.8524 18.9618 39.0726 20.2375 39.3916C21.7836 39.7783 25.3615 40.3261 27.7787 36.9424L27.682 37.3283C28.3265 37.8446 28.7788 40.6848 28.7031 43.2595C28.6275 45.8342 28.5763 47.6021 29.0842 48.9829C29.5917 50.3636 30.0975 53.4699 34.4182 52.5441C38.0285 51.7706 39.8992 49.7656 40.16 46.4213C40.3446 44.0435 40.7624 44.3953 40.7891 42.2694L41.1246 41.2632C41.5114 38.0401 41.1859 37.0006 43.4106 37.4841L43.9509 37.5313C45.588 37.6057 47.7304 37.2679 48.9883 36.6834C51.6964 35.4274 53.3025 33.3291 50.6324 33.8799Z" fill="#317CB8"/>
<path d="M33.2312 53.5092C29.6297 53.5092 28.4887 50.6571 28.0219 49.4908C27.3386 47.7815 27.1911 41.1481 27.3434 35.7082C27.3456 35.6165 27.366 35.5261 27.4034 35.4423C27.4407 35.3584 27.4943 35.2828 27.561 35.2198C27.6277 35.1568 27.7062 35.1076 27.792 35.075C27.8778 35.0424 27.9691 35.0272 28.0609 35.0301C28.1525 35.0326 28.2427 35.0531 28.3264 35.0905C28.4101 35.1279 28.4856 35.1814 28.5486 35.248C28.6116 35.3146 28.6608 35.393 28.6935 35.4786C28.7261 35.5643 28.7416 35.6555 28.739 35.7471C28.5636 42.0213 28.8125 47.7071 29.3182 48.9723C30.1075 50.945 31.3045 52.6705 34.6886 51.9456C37.9011 51.2565 39.1042 50.0385 39.6402 46.9318C40.0514 44.5479 40.8647 37.7658 40.9649 36.4275C40.9716 36.336 40.9963 36.2468 41.0376 36.1649C41.0788 36.083 41.1358 36.01 41.2053 35.9502C41.2748 35.8904 41.3554 35.8448 41.4426 35.8162C41.5297 35.7876 41.6216 35.7765 41.7131 35.7835C41.8976 35.7974 42.069 35.8841 42.1898 36.0243C42.3105 36.1646 42.3707 36.347 42.3571 36.5316C42.2525 37.925 41.4431 44.694 41.0161 47.1694C40.3835 50.8387 38.7477 52.503 34.9812 53.3106C34.3412 53.4475 33.7597 53.5088 33.2312 53.5092ZM13.703 39.5788C13.3882 39.5778 13.0756 39.5261 12.7772 39.4256C10.4379 38.6451 8.20973 34.8354 6.15436 28.101C4.58986 22.9748 3.59848 17.6241 3.51142 15.8851C3.25373 10.7296 4.58111 7.08214 7.45767 5.0447C13.1482 1.0127 22.7212 4.8522 23.1259 5.01758C23.2973 5.0876 23.4339 5.22286 23.5056 5.3936C23.5773 5.56434 23.5783 5.75658 23.5082 5.92801C23.4382 6.09945 23.3029 6.23605 23.1322 6.30776C22.9615 6.37947 22.7692 6.38042 22.5978 6.31039C22.5055 6.27276 13.3259 2.59514 8.2618 6.1857C5.80217 7.92958 4.67298 11.1697 4.90529 15.8155C4.97836 17.2807 5.90454 22.5027 7.48917 27.6932C9.32405 33.7053 11.4122 37.4989 13.2187 38.1013C13.5022 38.1958 14.3649 38.4833 15.5982 37.0001C17.0364 35.2728 18.5286 33.5911 20.0725 31.9575C20.2017 31.8287 20.3762 31.7555 20.5587 31.7537C20.7411 31.7519 20.917 31.8215 21.0488 31.9478C21.1805 32.074 21.2576 32.2468 21.2635 32.4292C21.2695 32.6115 21.2038 32.789 21.0805 32.9235C21.0595 32.9454 18.96 35.1403 16.6719 37.8931C15.5882 39.1964 14.5495 39.5788 13.703 39.5788ZM44.0782 33.6966C43.9516 33.6964 43.8275 33.6618 43.7191 33.5966C43.6106 33.5313 43.522 33.4378 43.4626 33.3261C43.4032 33.2143 43.3752 33.0885 43.3818 32.9621C43.3884 32.8357 43.4291 32.7135 43.4998 32.6085C50.0024 22.9595 52.2848 11.3005 50.3301 8.80239C47.8696 5.65852 44.3954 4.01658 40.0033 3.92164C36.7514 3.85164 34.1666 4.68201 33.744 4.82683L33.6377 4.87014C33.2129 5.00358 32.8869 4.77083 32.764 4.4987C32.6939 4.34279 32.6833 4.16662 32.7341 4.00342C32.785 3.84021 32.8938 3.70126 33.04 3.61276C33.0602 3.60095 33.1241 3.57383 33.2277 3.53576C33.9457 3.27283 36.5698 2.48533 39.82 2.52251C44.6797 2.57414 48.6942 4.44795 51.4286 7.94226C52.7223 9.59558 52.7254 13.4045 51.4369 18.3928C50.1236 23.4788 47.6521 28.9445 44.657 33.389C44.5231 33.589 44.3026 33.6966 44.0782 33.6966ZM44.4107 38.1635C43.3003 38.1635 42.305 38.0068 41.7091 37.6498C41.0966 37.2828 40.9798 36.784 40.9645 36.5193C40.7974 33.5837 42.417 33.0727 43.243 32.8395C43.1279 32.6654 42.9643 32.4606 42.795 32.2493C42.3133 31.6473 41.6535 30.8231 41.1452 29.5902C41.0656 29.3977 40.8162 28.9501 40.5274 28.4317C38.9616 25.6238 35.7035 19.781 37.7966 16.789C38.7652 15.4043 40.6941 14.8591 43.5361 15.1632C42.7001 12.6161 38.7188 4.64833 29.2719 4.49345C26.4307 4.4462 24.1006 5.31989 22.3497 7.08783C18.4297 11.0468 18.5715 18.21 18.5737 18.2817C18.5761 18.3733 18.5604 18.4646 18.5276 18.5501C18.4947 18.6357 18.4454 18.714 18.3823 18.7805C18.3192 18.847 18.2436 18.9004 18.1599 18.9377C18.0761 18.975 17.9859 18.9955 17.8942 18.9979C17.8026 19.0003 17.7114 18.9846 17.6258 18.9518C17.5402 18.919 17.4619 18.8696 17.3954 18.8065C17.3289 18.7434 17.2755 18.6678 17.2382 18.5841C17.2009 18.5004 17.1805 18.4101 17.178 18.3185C17.1693 18.0004 17.0232 10.4833 21.3579 6.1052C23.3866 4.05639 26.0571 3.04489 29.295 3.09783C35.3387 3.19714 39.2289 6.2697 41.4278 8.82951C43.8249 11.6195 45 14.6968 45.0967 15.7241C45.1689 16.488 44.6207 16.6406 44.51 16.6634L44.258 16.6691C41.4689 16.2224 39.6796 16.5326 38.9397 17.5896C37.3477 19.865 40.4299 25.392 41.7459 27.7523C42.0819 28.3543 42.3242 28.7896 42.4354 29.0582C42.8676 30.1065 43.4316 30.8108 43.8844 31.377C44.2829 31.8748 44.6281 32.3066 44.7515 32.8133C44.8088 32.9139 45.6221 34.117 50.4482 33.1208C51.6579 32.8715 52.3832 33.0845 52.6051 33.7552C53.0412 35.0743 50.5939 36.613 49.2389 37.2421C48.0249 37.8065 46.0872 38.1635 44.4107 38.1635ZM42.3562 36.4043C42.5093 36.5587 43.2754 36.8251 44.8617 36.7569C46.2722 36.6965 47.7597 36.3898 48.6522 35.9755C49.7937 35.4453 50.5558 34.8525 50.9504 34.4478L50.7317 34.488C47.646 35.125 45.4633 35.0401 44.2444 34.2356C44.1625 34.1816 44.0836 34.123 44.0082 34.0601C43.8761 34.1122 43.754 34.1463 43.6669 34.1708C42.9757 34.3646 42.2608 34.5655 42.3562 36.4043ZM22.4228 40.3046C21.6563 40.3046 20.8495 40.2 20.0257 39.994C19.1722 39.7805 17.7332 39.1378 17.7551 38.0821C17.78 36.8978 19.5025 36.5425 20.1509 36.4091C22.4932 35.9265 22.6459 35.7331 23.3779 34.8035C23.5914 34.5326 23.8569 34.1953 24.2192 33.7911C24.7569 33.1891 25.3444 32.8841 25.9657 32.8841C26.3984 32.8841 26.7532 33.0307 26.9877 33.1283C27.7349 33.438 28.3584 34.187 28.6147 35.0826C28.8462 35.8906 28.7355 36.6685 28.3041 37.2727C26.8879 39.2559 24.854 40.3046 22.4228 40.3046ZM19.2632 38.142C19.4736 38.3048 19.8954 38.5222 20.3648 38.6395C21.0784 38.818 21.7705 38.9085 22.4232 38.9085C24.4121 38.9085 26.009 38.0851 27.1688 36.4611C27.4107 36.1225 27.3381 35.6925 27.2734 35.4663C27.1377 34.9925 26.8009 34.5615 26.4539 34.4176C26.2658 34.3397 26.1096 34.2802 25.9661 34.2802C25.8891 34.2802 25.6546 34.2802 25.26 34.7216C24.9876 35.0279 24.7259 35.3434 24.4751 35.6675C23.5634 36.8251 23.1455 37.218 20.433 37.7767C19.7711 37.9123 19.4316 38.0506 19.2632 38.142ZM24.6309 34.922C24.4642 34.9218 24.3032 34.8619 24.1768 34.7533C24.0504 34.6446 23.9671 34.4944 23.9418 34.3296C23.9243 34.2138 23.9126 34.0971 23.9068 33.9801C22.1288 33.9468 20.4134 33.1838 19.1109 31.825C17.4642 30.1069 16.7147 27.7265 17.0551 25.2944C17.4248 22.6532 17.2865 20.3218 17.2122 19.0692C17.1916 18.721 17.1767 18.4694 17.1776 18.2953C17.1789 18.0743 17.1833 17.4885 19.1415 16.4958C19.838 16.1428 21.2345 15.5268 22.7601 15.3688C25.2875 15.1076 26.9536 16.2333 27.4523 18.539C28.7985 24.7637 27.559 27.5169 26.6539 29.5276C26.4854 29.9021 26.3262 30.2556 26.1989 30.5982L26.0864 30.9001C25.6082 32.1824 25.1948 33.2901 25.3217 34.1175C25.3356 34.2081 25.3315 34.3005 25.3097 34.3896C25.2879 34.4786 25.2488 34.5625 25.1945 34.6364C25.1403 34.7103 25.072 34.7728 24.9936 34.8203C24.9152 34.8678 24.8282 34.8994 24.7376 34.9133L24.6309 34.922ZM18.578 18.4886L18.6052 18.987C18.6822 20.2881 18.8257 22.7092 18.4372 25.4882C18.1567 27.4941 18.7692 29.452 20.1185 30.859C21.1847 31.9711 22.5877 32.5849 24.0297 32.5849H24.0595C24.2209 31.9046 24.4891 31.1862 24.7779 30.4123L24.8894 30.1121C25.0334 29.7254 25.2018 29.3509 25.3803 28.9545C26.2514 27.019 27.3359 24.6097 26.0869 18.8343C25.8397 17.6902 25.2399 17.0283 24.2542 16.81C22.2294 16.3628 19.212 17.8858 18.578 18.4886ZM22.7912 18.1925C22.7562 18.4392 23.2431 19.0981 23.8784 19.186C24.5123 19.2748 25.0548 18.7595 25.0894 18.5127C25.1239 18.266 24.6374 17.9938 24.0022 17.9055C23.3669 17.8171 22.8249 17.9457 22.7912 18.1925ZM24.024 19.4288L23.846 19.4166C23.4522 19.3619 23.0541 19.1138 22.7815 18.7525C22.6857 18.6256 22.5295 18.3797 22.5606 18.1601C22.6048 17.8381 22.9977 17.6451 23.6106 17.6451C23.7475 17.6451 23.8902 17.6552 24.0337 17.6753C24.3688 17.7217 24.6799 17.8184 24.9095 17.9466C25.3077 18.1688 25.337 18.4169 25.319 18.5451C25.2701 18.9008 24.7044 19.4288 24.024 19.4288ZM23.0226 18.2336C23.0423 18.3858 23.4194 18.8881 23.9103 18.9559L24.0245 18.9638C24.4777 18.9638 24.8164 18.6072 24.8562 18.4904C24.8142 18.4108 24.5228 18.213 23.9702 18.136C23.8512 18.1192 23.7312 18.1106 23.611 18.1102C23.2558 18.1102 23.0672 18.1903 23.0226 18.2336ZM42.0998 17.6889C42.1344 17.9356 41.6479 18.5945 41.0131 18.6829C40.3787 18.7713 39.8357 18.2563 39.8007 18.0096C39.7675 17.7628 40.254 17.4903 40.8884 17.4023C41.5227 17.3135 42.0648 17.4426 42.0998 17.6889ZM40.8665 18.8089C40.2557 18.8089 39.7285 18.3338 39.6852 18.0253C39.6349 17.6552 40.2444 17.3739 40.8717 17.2868C41.01 17.2676 41.1469 17.258 41.2786 17.258C41.8202 17.258 42.179 17.4168 42.2149 17.6731C42.2381 17.839 42.1107 18.0949 41.8916 18.3259C41.7467 18.4777 41.4427 18.7406 41.0284 18.798L40.8665 18.8089ZM41.2791 17.4907C41.1577 17.4907 41.0329 17.4996 40.9046 17.5174C40.2741 17.6053 39.8979 17.8582 39.9162 17.9938C39.9372 18.143 40.3397 18.5766 40.8669 18.5766L40.9969 18.5674C41.3412 18.5197 41.5997 18.2948 41.7231 18.1653C41.9169 17.9619 41.9939 17.7703 41.9847 17.7051C41.9725 17.6185 41.7397 17.4907 41.2791 17.4907ZM43.0137 31.8595C42.8873 31.8596 42.7632 31.8253 42.6547 31.7602C42.5462 31.6952 42.4575 31.6019 42.398 31.4903C42.3385 31.3787 42.3104 31.253 42.3169 31.1267C42.3233 31.0004 42.364 30.8782 42.4345 30.7732C43.9211 28.5529 43.649 26.2888 43.3861 24.0991C43.2736 23.1664 43.1581 22.2017 43.1879 21.276C43.2185 20.3235 43.3397 19.5378 43.4565 18.7778C43.5952 17.8775 43.7264 17.027 43.6722 16.0172C43.6672 15.9257 43.6804 15.8341 43.7108 15.7476C43.7413 15.6612 43.7885 15.5816 43.8497 15.5134C43.9109 15.4452 43.985 15.3897 44.0676 15.3501C44.1503 15.3105 44.24 15.2876 44.3315 15.2826C44.423 15.2777 44.5146 15.2908 44.6011 15.3213C44.6875 15.3518 44.7671 15.3989 44.8353 15.4602C44.9731 15.5838 45.0561 15.7571 45.0661 15.942C45.1282 17.0961 44.9799 18.0586 44.8364 18.99C44.7257 19.7088 44.6111 20.4521 44.5835 21.3206C44.5568 22.1405 44.6614 23.0111 44.7721 23.9325C45.0521 26.2608 45.3692 28.8998 43.5947 31.5498C43.5307 31.6451 43.4443 31.7232 43.3429 31.7772C43.2416 31.8312 43.1286 31.8595 43.0137 31.8595Z" fill="white"/>
</svg>
