<svg width="56" height="56" viewBox="0 0 56 56" fill="none" xmlns="http://www.w3.org/2000/svg">
<path d="M3.93015 34.16C3.52021 34.2677 2.9344 34.6059 2.6579 34.8981L2.38578 35.1729L2.31009 34.2051H1.3069L1.28415 37.7125L1.26709 41.227H2.40896L2.44134 38.9415C2.47896 36.3624 2.52446 36.1174 3.01228 35.6191C3.36665 35.2582 3.92228 35.0574 4.4079 35.1125C4.8174 35.1575 5.10265 35.3417 5.31878 35.7097C5.46403 35.9564 5.4719 36.1327 5.49684 38.5963L5.51959 41.227H6.66146L6.68378 38.7879C6.70653 36.4477 6.7144 36.3397 6.87715 36.0321C7.47084 34.9357 9.03796 34.7677 9.55334 35.7416C9.70865 36.0321 9.71653 36.1935 9.73927 38.6339L9.76946 41.227H10.8431L10.8186 38.3653L10.7958 35.5102L10.5793 35.1046C10.1015 34.1981 8.78115 33.8455 7.6874 34.3215C7.5089 34.3994 7.1694 34.6518 6.93053 34.8732C6.53065 35.2507 6.49084 35.2739 6.40728 35.1357C6.20603 34.79 5.87396 34.4829 5.5419 34.3219C5.14771 34.1447 4.31515 34.0542 3.93015 34.16Z" fill="#C60F0F"/>
<path d="M13.542 34.1674C12.6088 34.3664 11.7062 35.0336 11.3514 35.8019C10.8032 36.9612 10.826 38.6264 11.4048 39.7525C11.9924 40.904 13.5118 41.5637 14.8921 41.2794C16.776 40.8812 17.654 39.5687 17.5228 37.3519C17.5 36.9682 17.43 36.4852 17.3618 36.263C17.1002 35.4265 16.3437 34.6434 15.4937 34.3284C14.9927 34.1372 14.0517 34.0615 13.542 34.1674ZM15.124 35.2734C15.9491 35.6562 16.3507 36.4472 16.3437 37.6971C16.3359 38.9641 15.9657 39.7529 15.194 40.1454C14.6764 40.4122 13.8132 40.4201 13.3333 40.176C13.003 39.9992 12.6088 39.5994 12.4229 39.2463C12.0755 38.5787 12.0606 37.0216 12.3927 36.3089C12.7628 35.503 13.3735 35.104 14.2284 35.0966C14.6003 35.0892 14.8317 35.1342 15.124 35.2734ZM20.3245 34.1901C19.7759 34.3511 19.4443 34.5353 19.1275 34.8577C18.9587 35.0266 18.7955 35.1649 18.7653 35.1649C18.7347 35.1649 18.7045 34.943 18.7045 34.6661V34.1599L18.225 34.1818L17.7394 34.205L17.7166 37.712L17.7009 41.2264H18.858V39.017C18.8659 36.6843 18.9035 36.301 19.2124 35.8404C19.429 35.5022 20.0073 35.1797 20.5175 35.1119C21.2498 35.0113 21.9988 35.4344 22.1682 36.0469C22.2228 36.2402 22.253 37.2434 22.253 38.7874V41.2264H23.4177L23.3949 38.4802L23.3722 35.7415L23.1709 35.311C22.9395 34.8275 22.593 34.5125 22.0448 34.2982C21.5666 34.1135 20.7717 34.0606 20.3245 34.1901ZM25.9552 34.1595C24.791 34.4137 23.9658 35.2961 23.6417 36.6235C23.4955 37.2132 23.5183 38.3341 23.6793 38.8862C24.1518 40.5137 25.2005 41.3196 26.7199 41.2115C27.3062 41.1656 27.8158 40.9665 28.2083 40.6209C28.4708 40.3904 28.4948 40.3825 28.5408 40.5286C28.6182 40.781 28.4948 41.7707 28.347 42.1084C28.0552 42.769 27.4763 43.0679 26.5033 43.0679C25.6327 43.0609 25.0447 42.738 24.9065 42.1784C24.8684 42.0327 24.791 41.9947 24.5062 41.9553C24.3273 41.9357 24.1495 41.9077 23.9733 41.8713C23.8118 41.8407 23.7948 41.8639 23.7948 42.1635C23.8027 42.8994 24.3583 43.5443 25.2534 43.8514C25.6485 43.9901 25.9328 44.0277 26.534 44.0277C27.9239 44.0277 28.8798 43.5364 29.3427 42.5923C29.6897 41.894 29.7448 41.0807 29.7198 37.3519L29.6971 34.2054H28.6939L28.6712 34.6057C28.6563 34.8275 28.6257 35.0113 28.6033 35.0113C28.5784 35.0113 28.4402 34.9045 28.2862 34.7742C27.6999 34.2605 26.6972 33.9985 25.9556 34.1599L25.9552 34.1595ZM27.4763 35.2804C27.6929 35.3959 27.9694 35.6028 28.0853 35.7564C28.9498 36.8834 28.7867 39.2082 27.7843 39.9288C26.8048 40.6362 25.4393 40.2512 24.9537 39.14C24.7057 38.5712 24.6448 37.2832 24.8382 36.5854C24.9839 36.0237 25.3995 35.4873 25.872 35.2423C26.2872 35.0192 26.9815 35.0336 27.4763 35.2804ZM32.3203 34.1975C31.6812 34.3817 31.4878 34.4745 31.063 34.7969C30.2374 35.4116 29.8528 36.354 29.8603 37.7343C29.8603 38.7401 30.0143 39.3469 30.4312 39.9918C30.9868 40.8432 31.9353 41.3196 33.0921 41.3275C34.4273 41.3345 35.4839 40.7425 36.0168 39.6921L36.2863 39.1553L36.5252 39.6462C37.3975 41.4806 40.1288 41.9247 41.6802 40.498C41.9265 40.2749 42.1965 39.9616 42.2739 39.8155C42.3592 39.6619 42.4423 39.5385 42.4651 39.5385C42.49 39.5385 42.5736 39.7 42.651 39.9065C43.0382 40.8283 43.9942 41.3345 45.3592 41.3266C46.1541 41.3266 46.7403 41.1814 47.2732 40.8432C47.59 40.6441 48.0983 40.0749 48.0983 39.9139C48.0983 39.8837 48.1364 39.7608 48.1837 39.647L48.2593 39.4305L48.4829 39.8155C49.4489 41.5034 52.1417 41.8787 53.606 40.536C53.9849 40.1834 54.5012 39.2712 54.3782 39.1553C54.3397 39.1177 54.0781 39.0547 53.792 39.024L53.284 38.9562L53.1585 39.2161C52.8115 39.9367 52.3185 40.2989 51.5708 40.3597C50.3895 40.4678 49.5018 39.7376 49.2704 38.4881C49.2323 38.2659 49.217 38.065 49.2398 38.0419C49.2625 38.0195 50.4595 38.0042 51.8932 38.0042H54.5007V37.5908C54.5007 37.0597 54.4005 36.5382 54.1866 35.9707C53.9377 35.3105 53.1834 34.5751 52.497 34.3214C51.755 34.0444 50.729 34.0615 49.9967 34.359C48.7699 34.8577 48.0279 36.102 48.0205 37.6437V38.1731L47.7133 37.9036C47.3808 37.6284 46.718 37.3594 45.6689 37.0842C44.4947 36.777 44.1018 36.623 43.8935 36.3842C43.67 36.1173 43.6547 35.941 43.8161 35.6334C43.9942 35.2804 44.4868 35.0892 45.2209 35.0892C46.0609 35.0892 46.4389 35.2804 46.7102 35.8329C46.8633 36.147 46.9333 36.2232 47.0571 36.2004C47.2307 36.1702 47.4052 36.1449 47.5803 36.1247C48.013 36.0714 48.0454 35.9559 47.7588 35.349C47.3813 34.5427 46.5089 34.1293 45.206 34.1372C44.5953 34.1442 44.3411 34.1748 43.9793 34.3209C43.1918 34.6206 42.7442 35.15 42.6283 35.9252L42.5736 36.2783L42.3347 35.8172C41.1316 33.5146 37.5511 33.5623 36.4797 35.8933L36.2863 36.3159L36.0168 35.7795C35.6767 35.104 35.1444 34.6279 34.4199 34.3511C33.779 34.1061 32.8838 34.0435 32.3203 34.1975ZM34.0406 35.2887C34.8351 35.6794 35.2297 36.4782 35.2297 37.6971C35.2218 39.385 34.4427 40.3829 33.1302 40.3829C32.3278 40.3829 31.6567 39.9371 31.2944 39.1789C31.1028 38.765 31.0857 38.6644 31.0857 37.6975C31.0857 36.5688 31.171 36.2481 31.6186 35.7244C32.1515 35.097 33.2461 34.8975 34.0406 35.2887ZM40.1818 35.2034C40.5537 35.3565 41.0542 35.818 41.2322 36.1632C41.5722 36.823 41.6251 38.2037 41.3486 39.0096C41.1933 39.4629 40.7698 39.9616 40.3598 40.1611C39.6655 40.5142 38.6623 40.3978 38.0918 39.8986C37.1512 39.0783 37.0353 36.7775 37.8906 35.7874C38.4235 35.1574 39.449 34.9054 40.1818 35.2034ZM52.1246 35.2353C52.7358 35.4956 53.1904 36.1173 53.2136 36.7228L53.2285 37.0448H49.2953L49.3181 36.8151C49.3706 36.1702 49.8182 35.5656 50.4521 35.2506C50.8677 35.0419 51.6622 35.0336 52.1246 35.2353ZM43.2071 37.4053C43.516 37.6897 43.9487 37.8585 45.3215 38.226C45.976 38.4028 46.6021 38.6115 46.7102 38.6876C47.3738 39.1632 47.0269 40.0832 46.0915 40.3072C45.5359 40.4359 44.7808 40.368 44.3337 40.1384C44.0243 39.9848 43.9312 39.8763 43.7395 39.4707L43.5085 38.9947L42.5985 39.0857L42.6515 38.7252C42.6738 38.5262 42.6987 37.9968 42.6987 37.5514V36.7377L42.8444 36.9691C42.9205 37.0925 43.0837 37.2915 43.2071 37.4053ZM30.5244 11.0442C29.8205 11.0726 28.6353 11.2607 28.6353 11.3404C28.6353 11.374 29.4718 11.7918 29.5343 11.7918C29.5952 11.7918 30.5664 12.2775 30.7803 12.4118C31.063 12.5912 31.2638 12.7552 31.2052 12.7552C31.1675 12.7552 30.1696 12.3702 29.792 12.2066C29.4849 12.0758 28.2065 11.6965 27.5827 11.5486C27.2471 11.4707 27.1049 11.4405 26.5318 11.3364C25.6861 11.1811 24.6943 11.1732 24.2598 11.3154C23.6417 11.5167 23.503 11.763 23.503 12.6752C23.503 13.1761 23.5275 13.39 23.6377 13.8415C23.6832 14.0384 23.818 14.4694 23.8827 14.6159C23.8993 14.661 23.958 14.8032 24.0078 14.9305C24.0586 15.0556 24.2104 15.378 24.3447 15.6414C25.0977 17.1342 26.2247 18.3802 27.8141 19.4761C28.3142 19.8195 29.6787 20.4723 30.2247 20.628C30.3634 20.6657 30.4102 20.7453 30.2969 20.7453C30.1696 20.7453 29.0185 20.4264 28.7814 20.3262C28.6915 20.2871 28.6003 20.251 28.508 20.2181C27.689 19.886 26.6416 19.2053 25.7749 18.4314C24.8254 17.5865 24.0664 16.5494 23.548 15.389C23.2169 14.6404 22.9911 13.7659 22.936 13.005C22.9023 12.571 22.8682 12.4647 22.754 12.4704C22.7163 12.4704 22.3594 12.4573 21.9625 12.4367C20.8915 12.3908 19.4233 12.5085 17.9725 12.7592C15.1957 13.2308 12.201 14.3232 9.11754 15.9888C8.60451 16.2655 8.09776 16.5538 7.59767 16.8533C7.53948 16.8874 7.35486 16.999 7.18642 17.1057C7.01798 17.2099 6.82023 17.328 6.74848 17.3726C6.58923 17.4645 4.82698 18.661 4.61698 18.8199C4.53692 18.8789 4.31686 19.0421 4.13267 19.1747C3.29617 19.7955 1.47398 21.2799 1.36986 21.43C1.31823 21.5057 1.39786 21.5437 1.50811 21.5057C1.56279 21.4851 1.70498 21.4567 1.81873 21.4392C1.93686 21.4225 2.24004 21.3429 2.49248 21.2598C2.69512 21.1952 2.89872 21.1336 3.10323 21.0752C3.72492 20.9295 3.97692 20.8783 4.34354 20.8249C4.50673 20.8022 4.75129 20.7663 4.88998 20.7453C6.59886 20.4929 7.41436 20.4303 8.17429 20.4894C9.82848 20.6241 11.41 20.9028 12.3152 21.2252C12.992 21.468 14.3706 22.2131 14.9779 22.6611C15.327 22.9245 16.4535 24.0458 16.7016 24.3849C16.8954 24.6526 17.1094 24.8858 17.161 24.8858C17.1758 24.8858 17.1986 24.0322 17.2025 22.9914L17.2139 21.1001L19.4272 21.087C21.1685 21.0791 21.6519 21.0927 21.6825 21.1307C21.7241 21.1841 21.8247 21.3635 22.1563 21.9782C22.4735 22.5684 22.6288 22.8523 22.7251 23.0251C22.775 23.1165 22.8922 23.3344 22.9911 23.5046C23.0817 23.6774 23.2545 23.9946 23.3717 24.212C23.4898 24.4308 23.5865 24.6145 23.5865 24.622C23.5865 24.66 23.7589 24.8858 23.7895 24.8858C23.807 24.8858 23.8477 24.8228 23.877 24.7532C23.9112 24.6767 23.9995 24.5104 24.0704 24.3849C24.1461 24.258 24.2804 24.0112 24.3736 23.8406C24.4663 23.6678 24.5937 23.4311 24.6602 23.3174C24.8457 22.987 25.039 22.627 25.1983 22.3347C25.2783 22.1834 25.4057 21.9497 25.4792 21.811C25.5548 21.6728 25.6651 21.4777 25.7242 21.3714C25.7671 21.2881 25.8153 21.2078 25.8685 21.1307C25.9005 21.0927 26.3975 21.0791 28.1895 21.087L30.4658 21.1001L30.4767 24.7948C30.4868 27.7059 30.4977 28.4834 30.5415 28.4834C30.5655 28.4794 30.7348 28.3827 30.9077 28.2615C31.1505 28.0909 31.2563 27.9868 31.3683 27.7934C31.6265 27.355 32.3527 26.6647 32.8418 26.3969C33.4348 26.0692 34.0724 25.8298 34.7345 25.6864C35.4082 25.5442 35.6051 25.5232 37.132 25.4677C39.9202 25.3714 40.3336 25.3539 40.3546 25.3334C40.3655 25.3215 40.3279 25.2117 40.275 25.0866C40.2163 24.9654 40.114 24.7397 40.0431 24.59C39.778 24.0152 39.778 23.824 40.0549 23.5427C40.2443 23.3475 40.7317 23.1752 41.57 23.008C41.7087 22.9774 41.881 22.9415 41.9537 22.9149C42.0237 22.8943 42.1129 22.879 42.1505 22.879C42.2551 22.879 43.0929 22.672 43.2697 22.606C43.3913 22.5565 44.0471 22.4144 44.8302 22.263C45.1702 22.1965 46.0539 22.0202 46.7858 21.8736C47.2487 21.7826 47.7322 21.6859 47.8577 21.6614C47.9846 21.6352 48.1648 21.5989 48.2576 21.5818C48.3503 21.5608 48.472 21.5363 48.531 21.5267C48.5892 21.5135 48.8854 21.4567 49.1829 21.3941C49.4076 21.3451 49.6334 21.3014 49.8602 21.2629C50.0706 21.2423 51.6565 20.8612 52.0223 20.7453C52.6028 20.5563 52.7748 20.4819 53.1414 20.2352C53.5378 19.9657 53.6458 19.8195 54.0365 19.0421C54.471 18.1759 54.5335 18.0293 54.6552 17.6653C54.8442 17.0852 54.8332 16.8634 54.5917 16.6205C54.4255 16.4534 54.0632 16.2806 53.7977 16.2425C53.6008 16.2185 53.5758 16.2255 53.477 16.3318C53.4183 16.3948 53.3689 16.4683 53.3689 16.495C53.3689 16.5309 53.3007 16.7172 53.113 17.1687C53.0959 17.2138 53.0583 17.328 53.0277 17.4185C52.9986 17.5179 52.9637 17.6155 52.9231 17.7108C52.8684 17.8285 52.8649 17.8075 52.885 17.4811C52.906 17.1587 52.9616 16.8874 53.0828 16.4784C53.1038 16.3987 53.134 16.2635 53.1449 16.18L53.1659 16.0304L52.7297 15.854C52.3706 15.7072 52.013 15.5567 51.657 15.4025C51.5168 15.3471 51.3762 15.2927 51.2352 15.2394C51.0894 15.1865 50.9454 15.1289 50.8034 15.0665C50.6572 15.0028 50.5099 14.9415 50.3615 14.8828C50.0785 14.7747 49.0941 14.4414 48.2576 14.1771C48.0301 14.1054 46.7062 13.709 46.5754 13.6709C46.3786 13.6201 46.1827 13.5657 45.9878 13.5077C45.9192 13.4907 45.756 13.4456 45.6291 13.411C44.8897 13.2063 44.6959 13.1551 44.4303 13.0807C44.2842 13.0374 44.1369 12.9983 43.9885 12.9635C43.9088 12.9425 43.691 12.8917 43.5046 12.8458C42.6996 12.6555 41.8937 12.4692 41.087 12.2867C40.9113 12.2451 40.7355 12.2046 40.5593 12.165C40.434 12.1373 40.3081 12.1121 40.1818 12.0894C40.0063 12.0573 39.8313 12.0225 39.6568 11.9852C39.3835 11.9314 39.1096 11.8806 38.8352 11.833C38.5901 11.789 38.3448 11.7461 38.0993 11.7044C36.939 11.4957 36.8585 11.4825 34.7765 11.2529C33.4924 11.1072 31.7682 10.986 31.3473 11.0061C31.073 11.0153 30.7988 11.028 30.5248 11.0442M25.662 13.1057C26.7711 13.4666 27.8526 13.9553 28.5942 14.4313C29.1817 14.8128 29.9141 15.42 30.1114 15.6913L30.1967 15.805L30.0353 15.742C29.9478 15.7044 29.7623 15.6248 29.624 15.5583C28.8847 15.2149 28.8046 15.1842 28.8046 15.2608C28.8046 15.2814 28.977 15.5583 29.1817 15.8672C29.3926 16.18 29.561 16.4574 29.561 16.4814C29.561 16.5024 29.4814 16.4683 29.3847 16.4018C29.0058 16.1424 28.1177 15.7709 28.0665 15.8462C28.0556 15.8672 28.329 16.2145 28.6773 16.6205C29.022 17.0261 29.3086 17.373 29.3086 17.3975C29.3086 17.461 29.2408 17.4527 28.9223 17.335C28.5942 17.2177 28.5084 17.2064 28.5084 17.2842C28.5084 17.3389 29.2198 18.297 29.5024 18.6291C29.582 18.7197 29.6446 18.8072 29.6446 18.8282C29.6446 18.9288 28.6602 18.2892 27.9624 17.737C26.9649 16.943 26.0011 15.8746 25.4927 14.993C25.0775 14.2725 24.9336 13.8835 24.9336 13.4565C24.9336 13.2063 24.9467 13.1551 25.0399 13.068C25.0933 13.009 25.1611 12.963 25.1856 12.963C25.2118 12.963 25.421 13.0265 25.662 13.1057ZM38.9419 14.5954C39.3462 14.6671 39.8957 14.7616 40.1612 14.8097C40.4268 14.8552 40.7492 14.9099 40.8765 14.9309C41.0017 14.955 41.1837 14.9895 41.2764 15.0105C41.3678 15.0311 41.5498 15.0674 41.6745 15.098C42.0923 15.1886 42.193 15.2096 42.8742 15.3693C43.6057 15.5417 43.7649 15.5736 43.9889 15.6213C44.1779 15.6572 44.3678 15.7294 44.3678 15.7635C44.3678 15.7744 44.2278 15.8549 44.0611 15.9415C43.7155 16.1144 43.6437 16.1262 42.2227 16.1804C41.2537 16.2224 40.7383 16.211 40.2662 16.1354C39.3155 15.9892 38.8242 15.7215 38.441 15.1435C38.3067 14.9458 38.2178 14.8889 37.9103 14.8093C37.7965 14.7752 37.6237 14.7297 37.5327 14.6999C37.44 14.671 37.2803 14.6255 37.1783 14.5949C36.8765 14.5157 37.0488 14.4698 37.6578 14.4698C38.0787 14.4698 38.3732 14.4987 38.9419 14.5954ZM44.0012 20.4404C43.9664 20.4475 43.9305 20.4475 43.8957 20.4404C43.8668 20.4264 43.8878 20.4194 43.9465 20.4194C44.0051 20.4194 44.0261 20.4268 44.0012 20.4404ZM43.8192 20.4889C43.8192 20.5095 43.7702 20.5401 43.7054 20.5519C43.4336 20.6257 43.163 20.704 42.8938 20.7869C42.8357 20.8079 42.6471 20.8665 42.4747 20.9155C42.0403 21.0406 40.9894 21.384 40.7072 21.4921C40.1783 21.6934 38.9318 22.3553 38.756 22.5294C38.4961 22.7858 38.4147 23.0627 38.4523 23.5899C38.4655 23.8095 38.4961 24.0904 38.5202 24.2116C38.5696 24.4754 38.5412 24.5476 38.4405 24.4168C38.3386 24.2882 38.1238 23.8196 38.0612 23.5899C38.0275 23.4836 37.9895 23.3471 37.9685 23.2793C37.8923 23.0417 37.923 22.7609 38.0407 22.5885C38.1999 22.3457 38.7726 21.9572 39.4459 21.6347C39.7644 21.4807 40.6941 21.1622 41.5494 20.9115C41.7218 20.8608 41.9099 20.8022 41.9685 20.7869C42.5753 20.5821 43.8192 20.3848 43.8192 20.4889ZM30.5148 20.7698C30.5034 20.7812 30.4653 20.7869 30.4352 20.7733C30.401 20.7602 30.4142 20.7488 30.4592 20.7488C30.5073 20.7449 30.5323 20.7567 30.5148 20.7698Z" fill="#C60F0F"/>
<path d="M21.6934 28.8609V31.7887H23.789C25.3618 31.7887 25.8964 31.7756 25.934 31.7375C25.997 31.6749 26.0102 25.9319 25.9476 25.9319C25.927 25.9319 25.8964 25.9647 25.8833 26.0023C25.868 26.0404 25.4086 26.7548 24.8613 27.5918C23.9959 28.9139 23.7549 29.2359 23.7549 29.0731C23.7549 29.0443 22.3212 26.8069 21.955 26.2661C21.9051 26.196 21.8612 26.1218 21.8237 26.0443C21.79 25.9809 21.7485 25.9323 21.7275 25.9323C21.7104 25.9323 21.6934 27.2505 21.6934 28.8609Z" fill="#C60F0F"/>
</svg>
