<svg width="56" height="56" viewBox="0 0 56 56" fill="none" xmlns="http://www.w3.org/2000/svg">
<path d="M42.875 0H13.125C5.87626 0 0 5.87626 0 13.125V42.875C0 50.1237 5.87626 56 13.125 56H42.875C50.1237 56 56 50.1237 56 42.875V13.125C56 5.87626 50.1237 0 42.875 0Z" fill="#242938"/>
<path d="M49.875 40.0176C49.2382 40.2588 48.5351 40.2584 47.8985 40.0164C47.262 39.7743 46.7363 39.3074 46.4207 38.704C44.4382 35.7362 42.2489 32.9023 40.1448 30.0076L39.2324 28.7913C36.7268 32.1482 34.2213 35.3713 31.9347 38.7162C31.6368 39.2929 31.1395 39.7416 30.5354 39.9789C29.9312 40.2161 29.2614 40.2255 28.6508 40.0055L38.0527 27.3926L29.3075 15.9957C29.937 15.7685 30.6256 15.7654 31.2572 15.9869C31.8887 16.2085 32.4245 16.6412 32.774 17.212C34.8051 20.18 37.0554 23.0139 39.2932 26.0182C41.5435 23.0382 43.7692 20.192 45.8491 17.2485C46.1485 16.6811 46.6461 16.2437 47.2472 16.0194C47.8483 15.7951 48.5108 15.7997 49.1087 16.0323L45.7152 20.5326C44.1949 22.5394 42.6989 24.5585 41.1178 26.5167C40.9904 26.6308 40.8884 26.7705 40.8186 26.9266C40.7488 27.0828 40.7128 27.2519 40.7128 27.4229C40.7128 27.5939 40.7488 27.7631 40.8186 27.9192C40.8884 28.0753 40.9904 28.215 41.1178 28.3291C44.0247 32.1848 46.9072 36.0525 49.875 40.0176ZM6.125 27.2345C6.3805 26.0182 6.53844 24.6924 6.89128 23.4518C8.99544 15.9717 17.5702 12.8578 23.4692 17.492C26.9235 20.2045 27.7872 24.0479 27.617 28.3779H8.15631C7.84 36.1135 13.4227 40.7841 20.5623 38.4001C21.7205 37.9859 22.7572 37.2897 23.579 36.3745C24.4008 35.4592 24.9817 34.3537 25.2693 33.1578C25.6465 31.9415 26.2546 31.7348 27.41 32.0874C27.2197 33.5681 26.6962 34.9864 25.8788 36.2357C25.0614 37.485 23.9715 38.5327 22.6909 39.3001C20.5751 40.4573 18.1476 40.9158 15.7554 40.61C13.3633 40.3041 11.1292 39.2496 9.37256 37.5973C7.6347 35.6432 6.58389 33.1743 6.3805 30.5671C6.3805 30.1537 6.22234 29.74 6.13725 29.3509C6.1292 28.6454 6.12512 27.94 6.125 27.2345ZM8.18059 26.7114H25.7803C25.6707 21.1044 22.1314 17.1271 17.4123 17.0908C12.1579 17.0177 8.39956 20.9097 8.16834 26.6872L8.18059 26.7114Z" fill="white"/>
</svg>
