<svg width="30" height="30" viewBox="0 0 30 30" fill="none" xmlns="http://www.w3.org/2000/svg">
<circle cx="15" cy="15" r="15" fill="white"/>
<path d="M12 24.0001C13.6605 24.0001 15 22.6606 15 21.0001V18H12C10.3395 18 9 19.3396 9 21.0001C9 22.6606 10.3395 24.0001 12 24.0001Z" fill="#0ACF83"/>
<path d="M9 15.0001C9 13.3396 10.3395 12 12 12H15V18.0001H12C10.3395 18.0001 9 16.6606 9 15.0001Z" fill="#A259FF"/>
<path d="M9 9.00007C9 7.33956 10.3395 6 12 6H15V12.0001H12C10.3395 12.0001 9 10.6606 9 9.00007Z" fill="#F24E1E"/>
<path d="M15 6H18C19.6605 6 21 7.33956 21 9.00007C21 10.6606 19.6605 12.0001 18 12.0001H15V6Z" fill="#FF7262"/>
<path d="M21 15.0001C21 16.6606 19.6605 18.0001 18 18.0001C16.3395 18.0001 15 16.6606 15 15.0001C15 13.3396 16.3395 12 18 12C19.6605 12 21 13.3396 21 15.0001Z" fill="#1ABCFE"/>
</svg>
