<svg width="38" height="56" viewBox="0 0 38 56" fill="none" xmlns="http://www.w3.org/2000/svg">
<g clip-path="url(#clip0_150_26)">
<path d="M9.33333 55.9999C14.4853 55.9999 18.6667 51.8186 18.6667 46.6666V37.3333H9.33333C4.18133 37.3333 0 41.5146 0 46.6666C0 51.8186 4.18133 55.9999 9.33333 55.9999Z" fill="#0ACF83"/>
<path d="M0 28.0001C0 22.8481 4.18133 18.6667 9.33333 18.6667H18.6667V37.3334H9.33333C4.18133 37.3334 0 33.1521 0 28.0001Z" fill="#A259FF"/>
<path d="M0 9.33333C0 4.18133 4.18133 0 9.33333 0H18.6667V18.6667H9.33333C4.18133 18.6667 0 14.4853 0 9.33333Z" fill="#F24E1E"/>
<path d="M18.6667 0H28.0001C33.1521 0 37.3334 4.18133 37.3334 9.33333C37.3334 14.4853 33.1521 18.6667 28.0001 18.6667H18.6667V0Z" fill="#FF7262"/>
<path d="M37.3334 28.0001C37.3334 33.1521 33.1521 37.3334 28.0001 37.3334C22.8481 37.3334 18.6667 33.1521 18.6667 28.0001C18.6667 22.8481 22.8481 18.6667 28.0001 18.6667C33.1521 18.6667 37.3334 22.8481 37.3334 28.0001Z" fill="#1ABCFE"/>
</g>
<defs>
<clipPath id="clip0_150_26">
<rect width="37.3333" height="56" fill="white"/>
</clipPath>
</defs>
</svg>
