<svg width="64" height="64" viewBox="0 0 64 64" fill="none" xmlns="http://www.w3.org/2000/svg">
<path d="M11.804 54.402L7.31201 4H56.688L52.19 54.394L31.97 60L11.804 54.402Z" fill="#1F78B9"/>
<path d="M32 55.7161L48.34 51.1861L52.184 8.12207H32V55.7161Z" fill="#33A9DC"/>
<path d="M32 26.3821H40.18L40.744 20.0521H32V13.8701H32.022H47.5L47.352 15.5281L45.834 32.5641H32V26.3821Z" fill="white"/>
<path d="M32.038 42.436L32.01 42.444L25.126 40.584L24.686 35.6541H21.34H18.48L19.346 45.36L32.008 48.876L32.038 48.868V42.436Z" fill="#EBEBEB"/>
<path d="M39.6539 32.302L38.9099 40.58L32.0159 42.44V48.872L44.6879 45.36L44.7819 44.316L45.8559 32.302H39.6539Z" fill="white"/>
<path d="M32.0219 13.8701V17.7101V20.0361V20.0521H17.1099H17.0899L16.9659 18.6621L16.6839 15.5281L16.5359 13.8701H32.0219Z" fill="#EBEBEB"/>
<path d="M32.0002 26.3821V30.2221V32.5481V32.5641H25.2221H25.2021L25.0781 31.1741L24.7981 28.0401L24.6501 26.3821H32.0002Z" fill="#EBEBEB"/>
</svg>
