<svg width="56" height="56" viewBox="0 0 56 56" fill="none" xmlns="http://www.w3.org/2000/svg">
<path opacity="0.2" d="M3.54445 28.0007C3.53412 28.293 3.5 28.58 3.5 28.8757C3.5 42.4483 14.4267 53.375 27.9993 53.375C41.5719 53.375 52.4986 42.4483 52.4986 28.8757C52.4986 28.58 52.4636 28.293 52.4549 28.0007C51.9929 41.1621 41.2762 51.6251 27.9993 51.6251C14.7221 51.6251 4.00644 41.1621 3.54445 28.0007Z" fill="black"/>
<path d="M52.4986 28.0008C52.4986 14.4282 41.5719 3.50146 27.9993 3.50146C14.4267 3.50146 3.5 14.4282 3.5 28.0008C3.5 41.5734 14.4267 52.5001 27.9993 52.5001C41.5719 52.5001 52.4986 41.5734 52.4986 28.0008Z" fill="#4F4F4F"/>
<path opacity="0.1" d="M28 3.50171C14.4274 3.50171 3.5 14.4274 3.5 28C3.5 28.0994 3.50987 28.196 3.51538 28.2939C3.82297 14.9928 14.6223 4.375 28 4.375C41.3777 4.375 52.177 14.9928 52.4846 28.2939C52.4901 28.1961 52.5 28.0993 52.5 28C52.5 14.4274 41.5726 3.50171 28 3.50171Z" fill="white"/>
<path opacity="0.2" d="M40.9678 16.6301C40.2222 16.5953 38.1213 16.8443 34.8377 19.1286C33.0007 18.5747 30.9038 18.3697 28.7178 18.375C26.718 18.3798 24.6443 18.5436 22.6287 19.1286C19.344 16.8444 17.6653 16.5966 16.919 16.6318C16.6701 16.6435 16.5498 16.6814 16.5498 16.6814C15.3011 19.9207 16.0912 22.3172 16.3277 22.9123C14.8608 24.5566 14 26.6564 14 29.2253C14 38.2442 19.8438 40.2644 24.9358 40.8584C24.2812 41.4464 23.8693 42.6623 23.6609 44.1823C22.3545 44.7848 18.85 46.2594 16.8045 42.663C16.8045 42.663 15.5943 40.4024 13.2925 40.2363C13.2925 40.2363 11.0548 40.2074 13.137 41.6667C13.137 41.6667 14.6401 42.391 15.6834 45.1103C15.6834 45.1103 17.2326 49.2494 23.6114 47.8276C23.6167 48.7444 23.6205 50.459 23.625 52.1069C25.0444 52.3608 26.5054 52.5 28 52.5C30.4348 52.5 32.7817 52.1437 34.9983 51.4882C35.0041 49.2813 35.0103 46.8394 35.0103 45.1992C35.0103 43.0044 34.1029 41.568 33.2808 40.8413C38.3882 40.259 43.75 38.2673 43.75 29.2253C43.75 26.6564 43.0356 24.5549 41.5659 22.9106C41.8011 22.3153 42.5902 19.9207 41.3387 16.6814C41.3387 16.6814 41.2181 16.6417 40.9695 16.6301H40.9678Z" fill="black"/>
<path d="M40.9678 15.7551C40.2222 15.7203 38.1213 15.9693 34.8377 18.2536C33.0007 17.6997 30.9038 17.4947 28.7178 17.5C26.718 17.5048 24.6443 17.6686 22.6287 18.2536C19.344 15.9694 17.6653 15.7216 16.919 15.7568C16.6701 15.7685 16.5498 15.8064 16.5498 15.8064C15.3011 19.0457 16.0912 21.4422 16.3277 22.0373C14.8608 23.6816 14 25.7814 14 28.3503C14 37.3692 19.8438 39.3894 24.9358 39.9834C24.2812 40.5714 23.8693 41.7873 23.6609 43.3073C22.3545 43.9098 18.85 45.3844 16.8045 41.788C16.8045 41.788 15.5943 39.5274 13.2925 39.3613C13.2925 39.3613 11.0548 39.3324 13.137 40.7917C13.137 40.7917 14.6401 41.516 15.6834 44.2353C15.6834 44.2353 17.2326 48.3744 23.6114 46.9526C23.6177 48.0569 23.623 50.1153 23.6284 52.1069C25.0468 52.3605 26.5066 52.5 28 52.5C30.4342 52.5 32.7804 52.1434 34.9966 51.4882C35.0032 49.0601 35.0103 46.1926 35.0103 44.3242C35.0103 42.1294 34.1029 40.693 33.2808 39.9663C38.3882 39.384 43.75 37.3923 43.75 28.3503C43.75 25.7814 43.0356 23.6799 41.5659 22.0356C41.8011 21.4403 42.5902 19.0457 41.3387 15.8064C41.3387 15.8064 41.2181 15.7667 40.9695 15.7551H40.9678Z" fill="white"/>
</svg>
