<svg width="30" height="30" viewBox="0 0 30 30" fill="none" xmlns="http://www.w3.org/2000/svg">
<g clip-path="url(#clip0_385_107)">
<circle cx="14.9707" cy="15.3809" r="15.0293" fill="black"/>
<path fill-rule="evenodd" clip-rule="evenodd" d="M15 0.369141C6.71484 0.369141 0 7.08399 0 15.3691C0 22.0078 4.29492 27.6152 10.2539 29.6016C11.0039 29.7305 11.2852 29.2852 11.2852 28.8867C11.2852 28.5293 11.2676 27.3516 11.2676 26.0918C7.5 26.7832 6.52148 25.1719 6.22266 24.3281C6.05273 23.8945 5.32031 22.5645 4.6875 22.207C4.16016 21.9258 3.41016 21.2344 4.66992 21.2109C5.85352 21.1934 6.69727 22.3008 6.97852 22.7461C8.32617 25.0137 10.4824 24.375 11.3496 23.9824C11.4785 23.0098 11.877 22.3535 12.3047 21.9785C8.96484 21.6035 5.47852 20.3086 5.47852 14.5723C5.47852 12.9434 6.05859 11.5898 7.01367 10.541C6.86133 10.166 6.33984 8.63086 7.16602 6.56836C7.16602 6.56836 8.41992 6.17578 11.291 8.10352C12.4922 7.76367 13.7637 7.59961 15.041 7.59961C16.3184 7.59961 17.5898 7.76953 18.791 8.10352C21.6621 6.15235 22.916 6.56836 22.916 6.56836C23.7422 8.63086 23.2148 10.166 23.0684 10.541C24.0234 11.5898 24.6035 12.9199 24.6035 14.5723C24.6035 20.3262 21.0996 21.6035 17.7598 21.9785C18.3047 22.4473 18.7734 23.3496 18.7734 24.7559C18.7734 26.7598 18.7559 28.377 18.7559 28.8809C18.7559 29.2734 19.0371 29.7422 19.7871 29.5957C25.7051 27.6152 30 21.9902 30 15.3691C30 7.08399 23.2852 0.369141 15 0.369141Z" fill="white"/>
</g>
<defs>
<clipPath id="clip0_385_107">
<rect width="30" height="30" fill="white"/>
</clipPath>
</defs>
</svg>
