<svg width="59" height="56" viewBox="0 0 59 56" fill="none" xmlns="http://www.w3.org/2000/svg">
<mask id="mask0_150_46" style="mask-type:luminance" maskUnits="userSpaceOnUse" x="0" y="0" width="58" height="56">
<path d="M57.4359 0H0V56H57.4359V0Z" fill="white"/>
</mask>
<g mask="url(#mask0_150_46)">
<path d="M47.265 0H10.1709C4.55368 0 0 4.55368 0 10.1709V45.8291C0 51.4463 4.55368 56 10.1709 56H47.265C52.8822 56 57.4359 51.4463 57.4359 45.8291V10.1709C57.4359 4.55368 52.8822 0 47.265 0Z" fill="#330000"/>
<path d="M27.8326 33.6067H18.9322L17.1213 39.2321C17.0967 39.3346 17.037 39.4254 16.9526 39.4887C16.8682 39.552 16.7643 39.5839 16.659 39.5789H12.151C11.8939 39.5789 11.804 39.4376 11.8813 39.155L19.5872 16.9618C19.6643 16.7307 19.7414 16.4674 19.8184 16.1719C19.9192 15.6578 19.9708 15.1354 19.9726 14.6115C19.9673 14.5749 19.9707 14.5375 19.9824 14.5024C19.9941 14.4673 20.0138 14.4354 20.04 14.4092C20.0662 14.3831 20.0981 14.3633 20.1332 14.3516C20.1683 14.3399 20.2056 14.3365 20.2423 14.3418H26.3684C26.548 14.3418 26.6507 14.406 26.6767 14.5344L35.4231 39.1935C35.5001 39.4506 35.423 39.5791 35.1918 39.5789H30.1829C30.0969 39.5884 30.0103 39.5663 29.9394 39.5166C29.8686 39.467 29.8181 39.3932 29.7976 39.3091L27.8326 33.6067ZM20.3193 28.752H26.407C26.2529 28.2384 26.0731 27.6605 25.8676 27.0181C25.6617 26.3763 25.4434 25.6892 25.2126 24.9567C24.9814 24.2247 24.7502 23.4927 24.519 22.7605C24.2879 22.0285 24.076 21.3221 23.8833 20.6413C23.6906 19.9611 23.5172 19.3382 23.3632 18.7727H23.3247C23.1077 19.8133 22.8377 20.8421 22.5155 21.8551C22.1555 23.011 21.7894 24.1926 21.4174 25.3998C21.0447 26.6075 20.6787 27.7249 20.3193 28.752Z" fill="#FF9A00"/>
<path d="M40.624 18.4259C40.231 18.4417 39.8392 18.3744 39.474 18.2283C39.1088 18.0822 38.7786 17.8607 38.5049 17.5783C38.232 17.2836 38.0199 16.9379 37.8811 16.561C37.7422 16.184 37.6792 15.7834 37.6957 15.3821C37.6817 14.9847 37.7516 14.5889 37.901 14.2204C38.0504 13.8519 38.2759 13.5191 38.5626 13.2437C38.8466 12.9711 39.1818 12.7575 39.5489 12.6154C39.9159 12.4731 40.3075 12.4051 40.701 12.4153C41.6258 12.4153 42.3515 12.6914 42.878 13.2437C43.1438 13.5307 43.3504 13.8672 43.4859 14.2342C43.6214 14.6011 43.6832 14.9912 43.6678 15.3821C43.6839 15.785 43.6189 16.187 43.4766 16.5643C43.3343 16.9416 43.1176 17.2864 42.8394 17.5783C42.5487 17.8649 42.2017 18.0882 41.8204 18.234C41.4392 18.3799 41.0318 18.4452 40.624 18.4259ZM37.9653 39.1935V20.7762C37.9653 20.5451 38.0677 20.4295 38.2736 20.4295H43.0128C43.2182 20.4295 43.3209 20.545 43.3211 20.7762V39.1935C43.3211 39.4506 43.2183 39.579 43.0128 39.5789H38.3122C38.081 39.5789 37.9655 39.4504 37.9653 39.1935Z" fill="#FF9A00"/>
</g>
</svg>
