<svg width="56" height="56" viewBox="0 0 56 56" fill="none" xmlns="http://www.w3.org/2000/svg">
<g clip-path="url(#clip0_304_24)">
<path d="M0 0H56V56H0" fill="#F7DF1E"/>
<path d="M35.4375 40.4688C36.6771 42.5833 38.3177 43.6406 40.3594 43.6406C42.9115 43.6406 44.1875 42.6562 44.1875 40.6875C44.1875 39.4844 42.5469 38.3906 39.9219 37.2969C35.0365 35.6927 32.6302 32.9583 32.7031 29.0938C32.7031 25.1562 35.6562 22.0938 40.3594 22.0938C43.8594 22.0938 46.3385 23.5156 47.7969 26.3594L43.75 28.9844C42.875 27.3802 41.7448 26.6146 40.3594 26.6875C38.7552 26.7604 37.9167 27.526 37.8438 28.9844C37.8438 30.5156 38.8281 31.1719 42.1094 32.5938C46.8125 34.4531 49.4375 36.5312 49.4375 41.0156C49.2188 45.7552 46.3385 48.1979 40.7969 48.3438C36.2031 48.3438 32.9583 46.5573 31.0625 42.9844L35.4375 40.4688ZM16.8438 40.9062C17.7188 42.3281 18.2656 43.6406 20.4531 43.6406C22.2031 43.6406 23.0781 42.5469 23.0781 40.3594V22.2031H28.3281V40.1406C28.2552 45.3177 25.6302 47.9427 20.4531 48.0156C16.5885 47.9427 13.9635 46.3385 12.5781 43.2031L16.8438 40.9062Z" fill="black"/>
</g>
<defs>
<clipPath id="clip0_304_24">
<rect width="56" height="56" fill="white"/>
</clipPath>
</defs>
</svg>
