<svg width="13" height="14" viewBox="0 0 13 14" fill="none" xmlns="http://www.w3.org/2000/svg">
<path d="M7.18728 2.48715C7.34981 2.32467 7.57021 2.2334 7.80002 2.2334C8.02983 2.2334 8.25023 2.32467 8.41275 2.48715L12.3127 6.38715C12.4752 6.54967 12.5665 6.77007 12.5665 6.99988C12.5665 7.22969 12.4752 7.45009 12.3127 7.61261L8.41275 11.5126C8.24929 11.6705 8.03037 11.7578 7.80314 11.7559C7.5759 11.7539 7.35853 11.6627 7.19784 11.5021C7.03715 11.3414 6.94601 11.124 6.94403 10.8968C6.94206 10.6695 7.02941 10.4506 7.18728 10.2871L9.53335 7.86655H1.30002C1.07016 7.86655 0.849722 7.77524 0.68719 7.61271C0.524659 7.45017 0.43335 7.22973 0.43335 6.99988C0.43335 6.77003 0.524659 6.54959 0.68719 6.38705C0.849722 6.22452 1.07016 6.13321 1.30002 6.13321H9.53335L7.18728 3.71261C7.02481 3.55009 6.93353 3.32969 6.93353 3.09988C6.93353 2.87007 7.02481 2.64967 7.18728 2.48715Z" fill="black"/>
</svg>
