<svg width="56" height="56" viewBox="0 0 56 56" fill="none" xmlns="http://www.w3.org/2000/svg">
<g clip-path="url(#clip0_150_59)">
<path d="M9.91681 0.699951H46.0832C51.5668 0.699951 56 5.13314 56 10.6168V45.3831C56 50.8668 51.5668 55.3 46.0832 55.3H9.91681C4.43319 55.3 0 50.8668 0 45.3831V10.6168C0 5.13314 4.43319 0.699951 9.91681 0.699951Z" fill="#001E36"/>
<path d="M20.0669 14.5833C19.3669 14.5833 18.6669 14.5833 17.9437 14.6069C17.2201 14.6301 16.5433 14.6301 15.9133 14.6537C15.2833 14.6769 14.7001 14.6769 14.1401 14.7001C13.6033 14.7233 13.2301 14.7233 12.8333 14.7233C12.6701 14.7233 12.6001 14.8164 12.6001 14.9801V38.9901C12.6001 39.2001 12.6933 39.2937 12.8801 39.2937H17.4069C17.5701 39.2701 17.6869 39.1301 17.6633 38.9669V31.4769C18.1065 31.4769 18.4333 31.4769 18.6669 31.5001C18.9001 31.5233 19.2733 31.5233 19.8333 31.5233C21.7469 31.5233 23.4969 31.3133 25.0833 30.7301C26.6001 30.1701 27.9069 29.1901 28.8401 27.8833C29.7733 26.5769 30.2401 24.9201 30.2401 22.9133C30.2401 21.8633 30.0537 20.8601 29.7037 19.8801C29.3331 18.8815 28.7521 17.9743 28.0001 17.2201C27.1128 16.358 26.0447 15.7043 24.8733 15.3064C23.5665 14.8164 21.9801 14.5833 20.0669 14.5833ZM20.5875 19.1792C21.4188 19.1949 22.2282 19.3402 22.9833 19.6464C23.6601 19.9033 24.2201 20.3701 24.6169 20.9764C24.9895 21.6038 25.1757 22.3243 25.1537 23.0537C25.1537 24.0801 24.9201 24.8737 24.4301 25.4569C23.9165 26.0401 23.2633 26.4837 22.5169 26.6937C21.6533 26.9737 20.7433 27.1133 19.8333 27.1133H18.5965C18.3165 27.1133 18.0137 27.0901 17.6869 27.0669V19.2269C17.8501 19.2033 18.1769 19.1801 18.6437 19.2037C19.0869 19.1801 19.6233 19.1801 20.2301 19.1801C20.3495 19.177 20.469 19.1766 20.5875 19.1792ZM40.1569 20.3705C38.5001 20.3705 37.1233 20.6269 36.0269 21.1869C35.0237 21.6537 34.1601 22.4001 33.5769 23.3333C33.0637 24.1969 32.7833 25.1533 32.7833 26.1569C32.7633 26.9823 32.9477 27.7999 33.3201 28.5369C33.7566 29.3215 34.3625 29.999 35.0937 30.5201C36.1202 31.222 37.2341 31.7868 38.4069 32.2001C39.5501 32.6433 40.3201 32.9933 40.6937 33.2964C41.0669 33.6001 41.2537 33.9033 41.2537 34.2301C41.2537 34.6501 40.9969 35.0469 40.6237 35.2101C40.2037 35.4201 39.5737 35.5369 38.6869 35.5369C37.7537 35.5369 36.8201 35.4201 35.9333 35.1869C34.9151 34.9592 33.9389 34.5735 33.0401 34.0437C32.9701 33.9969 32.9001 33.9737 32.8301 34.0205C32.7601 34.0669 32.7369 34.1601 32.7369 34.2301V38.2901C32.7137 38.4769 32.8301 38.6401 32.9937 38.7332C33.7504 39.0868 34.5507 39.3379 35.3737 39.4801C36.4237 39.6901 37.4733 39.7833 38.5465 39.7833C40.2265 39.7833 41.6269 39.5269 42.7701 39.0369C43.8201 38.6169 44.7301 37.8937 45.3833 36.9601C45.9948 36.0421 46.3122 34.9597 46.2933 33.8569C46.3161 33.0238 46.1318 32.198 45.7569 31.4537C45.3133 30.6601 44.6833 30.0069 43.9133 29.5169C42.7868 28.8096 41.5807 28.2377 40.3201 27.8133C39.7571 27.5804 39.2043 27.3234 38.6633 27.0433C38.3601 26.8801 38.0801 26.6701 37.8701 26.4133C37.7301 26.2264 37.6369 26.0169 37.6369 25.8069C37.6369 25.5969 37.7069 25.3637 37.8233 25.1769C37.9869 24.9437 38.2433 24.7801 38.5465 24.7101C38.9901 24.5937 39.4801 24.5233 39.9465 24.5464C40.8333 24.5464 41.6965 24.6633 42.5601 24.8501C43.3537 25.0133 44.1001 25.2701 44.8001 25.6437C44.8933 25.6901 45.0101 25.6901 45.2201 25.6437C45.2567 25.6168 45.2863 25.5815 45.3066 25.5409C45.3269 25.5003 45.3373 25.4555 45.3369 25.4101V21.6069C45.3369 21.5133 45.3133 21.4201 45.2901 21.3269C45.2433 21.2337 45.1501 21.1401 45.0569 21.1169C44.4134 20.8537 43.7391 20.6733 43.0501 20.5801C42.092 20.4405 41.1251 20.3708 40.1569 20.3705Z" fill="#31A8FF"/>
</g>
<defs>
<clipPath id="clip0_150_59">
<rect width="56" height="56" fill="white"/>
</clipPath>
</defs>
</svg>
