<svg width="61" height="55" viewBox="0 0 61 55" fill="none" xmlns="http://www.w3.org/2000/svg">
<path d="M36.1679 27.1704C36.1679 28.6772 35.5695 30.1224 34.5043 31.1881C33.439 32.2539 31.9941 32.8529 30.4873 32.8536C28.98 32.8536 27.5345 32.2548 26.4687 31.189C25.4029 30.1232 24.8041 28.6777 24.8041 27.1704C24.8041 25.6636 25.4025 24.2184 26.4678 23.1527C27.533 22.087 28.9779 21.4879 30.4848 21.4872C31.992 21.4872 33.4376 22.086 34.5034 23.1518C35.5692 24.2176 36.1679 25.6631 36.1679 27.1704ZM42.8983 0C39.4772 0 35.0013 2.44 30.4746 6.66425C25.9504 2.46288 21.472 0.0508333 18.0535 0.0508333C17.0114 0.0508333 16.0633 0.287208 15.2424 0.757417C11.7476 2.77296 10.9648 9.05342 12.7693 16.9351C5.0325 19.3243 0 23.1444 0 27.1704C0 31.2117 5.05792 35.042 12.8176 37.4133C11.0283 45.3255 11.8264 51.6162 15.3288 53.6292C16.1421 54.1045 17.0825 54.3281 18.1297 54.3281C21.5483 54.3281 26.0267 51.8881 30.5534 47.6588C35.0775 51.8627 39.556 54.2748 42.9745 54.2748C44.0166 54.2748 44.9646 54.046 45.7856 53.5758C49.2778 51.5628 50.0632 45.2823 48.2586 37.3981C55.9675 35.0293 61 31.2015 61 27.1704C61 23.1292 55.9421 19.2989 48.1824 16.9224C49.9717 9.01783 49.1736 2.72213 45.6712 0.706583C44.863 0.238917 43.9251 0.00254167 42.8983 0ZM42.8855 2.77042V2.78567C43.4574 2.78567 43.9175 2.8975 44.3038 3.10846C45.9965 4.07937 46.7311 7.77242 46.1592 12.5228C46.022 13.692 45.7983 14.9247 45.5238 16.1828C43.0838 15.583 40.4252 15.1229 37.6268 14.8255C35.9493 12.5253 34.2083 10.4361 32.4545 8.60608C36.5009 4.84442 40.3007 2.78058 42.8881 2.77296L42.8855 2.77042ZM18.0535 2.82125C20.6256 2.82125 24.4432 4.87492 28.4997 8.61625C26.7561 10.4462 25.0176 12.5228 23.3655 14.823C20.5519 15.1204 17.8908 15.5804 15.4533 16.1904C15.1687 14.945 14.9577 13.7402 14.8078 12.5813C14.2232 7.83342 14.945 4.14292 16.6225 3.15929C17.1054 2.93054 17.6392 2.83396 18.0535 2.82125ZM30.4619 10.5733C31.6183 11.7628 32.7748 13.0947 33.9185 14.5485C32.8002 14.4977 31.6565 14.4621 30.5 14.4621C29.3308 14.4621 28.1744 14.4875 27.0433 14.5485C28.1617 13.0947 29.3181 11.7654 30.4619 10.5733ZM30.5 17.2478C32.3808 17.2478 34.254 17.3342 36.0968 17.4841C37.1287 18.9634 38.1352 20.5418 39.1035 22.2116C40.049 23.8383 40.9081 25.4904 41.691 27.1577C40.9081 28.8225 40.049 30.4873 39.1163 32.114C38.1504 33.7915 37.1515 35.3876 36.1171 36.8669C34.2668 37.027 32.391 37.116 30.5 37.116C28.6192 37.116 26.746 37.027 24.9033 36.8796C23.8713 35.4003 22.8648 33.8194 21.8965 32.1521C20.951 30.5254 20.0919 28.8733 19.309 27.206C20.0792 25.5361 20.951 23.8688 21.8837 22.2396C22.8496 20.5621 23.8485 18.971 24.8829 17.4918C26.7333 17.3291 28.609 17.2427 30.5 17.2427V17.2478ZM21.261 17.8933C20.651 18.8515 20.041 19.8326 19.4717 20.8417C18.8998 21.8329 18.3661 22.8293 17.8577 23.8256C17.1842 22.1582 16.6123 20.496 16.1396 18.877C17.7663 18.4957 19.4819 18.1551 21.261 17.8933ZM39.7135 17.8933C41.48 18.1551 43.1829 18.4779 44.8121 18.877C44.3546 20.4833 43.7828 22.1354 43.1346 23.79C42.6263 22.7987 42.0925 21.7999 41.508 20.8061C40.9361 19.8097 40.3261 18.8388 39.7161 17.8933H39.7135ZM47.4987 19.609C48.7288 19.9902 49.898 20.4147 50.9935 20.8747C55.3956 22.7555 58.2423 25.2159 58.2423 27.1679C58.2296 29.1199 55.3829 31.5904 50.9808 33.4585C49.9133 33.916 48.7441 34.3278 47.5368 34.7115C46.8251 32.2766 45.8949 29.74 44.741 27.1374C45.8847 24.5525 46.7997 22.0286 47.4987 19.6039V19.609ZM13.453 19.6191C14.1596 22.0591 15.0924 24.5932 16.2489 27.1933C15.1051 29.7782 14.185 32.302 13.4886 34.7268C12.2585 34.3455 11.0893 33.9185 10.0065 33.456C5.60438 31.5828 2.75771 29.1199 2.75771 27.1679C2.75771 25.2159 5.60438 22.7403 10.0065 20.8747C11.074 20.4172 12.2432 20.0055 13.453 19.6191ZM43.1346 30.4975C43.8082 32.1673 44.38 33.8321 44.8528 35.4486C43.2261 35.8477 41.508 36.1857 39.7288 36.4399C40.3388 35.4868 40.9488 34.5031 41.5207 33.4966C42.0925 32.5054 42.6238 31.4938 43.1346 30.4975ZM17.8577 30.5483C18.3661 31.5446 18.8998 32.5384 19.4844 33.5348C20.069 34.526 20.6663 35.4969 21.2763 36.4399C19.5098 36.1806 17.8069 35.8553 16.1777 35.4588C16.6352 33.8575 17.2096 32.2004 17.8552 30.5457L17.8577 30.5483ZM45.5467 38.1403C45.8313 39.3933 46.055 40.6006 46.1922 41.757C46.7768 46.5049 46.055 50.1954 44.3775 51.1815C44.0039 51.4103 43.5184 51.5069 42.9465 51.5069C40.3744 51.5069 36.5568 49.4558 32.5003 45.7119C34.2439 43.8819 35.9824 41.8079 37.6345 39.5102C40.4481 39.2103 43.1092 38.7503 45.5467 38.1403ZM15.4788 38.1657C17.9188 38.7604 20.5773 39.2205 23.3757 39.5178C25.0532 41.818 26.7943 43.9073 28.548 45.7348C24.494 49.504 20.6892 51.5679 18.1018 51.5679C17.5426 51.5552 17.0698 51.4408 16.6962 51.2324C15.0035 50.2665 14.2689 46.571 14.8408 41.8206C14.978 40.6514 15.2043 39.4212 15.4788 38.1657ZM27.0688 39.7923C28.1871 39.8432 29.3308 39.8787 30.4873 39.8787C31.6565 39.8787 32.8129 39.8533 33.944 39.7923C32.8256 41.2462 31.6692 42.5755 30.5254 43.77C29.369 42.5755 28.2125 41.2462 27.0688 39.7923Z" fill="url(#paint0_linear_304_9)"/>
<defs>
<linearGradient id="paint0_linear_304_9" x1="30.5" y1="0" x2="30.5" y2="54.3281" gradientUnits="userSpaceOnUse">
<stop stop-color="#00D8FF"/>
<stop offset="1" stop-color="#00D8FF"/>
</linearGradient>
</defs>
</svg>
