<svg width="57" height="54" viewBox="0 0 57 54" fill="none" xmlns="http://www.w3.org/2000/svg">
<path d="M39.495 37.5638C41.5985 37.3475 43.1943 35.545 43.1217 33.382C43.0492 31.2191 41.2358 29.4887 39.0598 29.4887H38.9147C36.6661 29.5608 34.9253 31.4354 34.9978 33.6704C35.0704 34.7519 35.5056 35.6892 36.1584 36.3381C33.6922 41.1688 29.9204 44.7016 24.2626 47.6577C20.4183 49.6765 16.4289 50.3975 12.4395 49.8928C9.17539 49.4602 6.63667 48.0182 5.0409 45.6389C2.71979 42.1061 2.50218 38.2848 4.46062 34.4635C5.83879 31.7238 8.01483 29.705 9.393 28.6956C9.10286 27.7583 8.66765 26.1721 8.45004 25.0185C-2.06752 32.5889 -0.979494 42.8271 2.21204 47.6577C4.60569 51.2627 9.46553 53.4978 14.8331 53.4978C16.2838 53.4978 17.7345 53.3536 19.1852 52.9931C28.4697 51.1906 35.5056 45.711 39.495 37.5638ZM52.2611 28.6235C46.7485 22.2066 38.6246 18.6738 29.3401 18.6738H28.1795C27.5267 17.376 26.1486 16.5108 24.6253 16.5108H24.4803C22.2317 16.5829 20.4908 18.4575 20.5634 20.6925C20.6359 22.8555 22.4493 24.5859 24.6253 24.5859H24.7704C26.3662 24.5138 27.7443 23.5044 28.3246 22.1345H29.6302C35.1429 22.1345 40.3654 23.7207 45.0802 26.821C48.7069 29.2003 51.3182 32.3005 52.7689 36.0497C54.002 39.0779 53.9294 42.034 52.6238 44.5574C50.5928 48.3787 47.1837 50.4696 42.6865 50.4696C39.7851 50.4696 37.0288 49.6044 35.5781 48.9555C34.7802 49.6765 33.3295 50.8301 32.314 51.5511C35.433 52.9931 38.6246 53.7862 41.671 53.7862C48.6344 53.7862 53.7844 49.9649 55.7428 46.1436C57.8463 41.9619 57.7012 34.7519 52.2611 28.6235ZM15.4134 38.7895C15.4859 40.9525 17.2993 42.6829 19.4753 42.6829H19.6204C21.869 42.6108 23.6098 40.7362 23.5373 38.5011C23.4648 36.3381 21.6514 34.6077 19.4753 34.6077H19.3303C19.1852 34.6077 18.9676 34.6077 18.8225 34.6798C15.8486 29.7771 14.6155 24.4417 15.0507 18.6738C15.3409 14.3478 16.7916 10.5986 19.3303 7.49834C21.4338 4.83066 25.4957 3.53287 28.2521 3.46077C35.9408 3.31657 39.2048 12.8337 39.4224 16.655C40.3654 16.8713 41.9612 17.376 43.0492 17.7365C42.1788 6.05635 34.9253 0 27.9619 0C21.4338 0 15.4134 4.68646 13.0197 11.608C9.68314 20.8367 11.8592 29.705 15.9211 36.6986C15.5585 37.2033 15.3409 37.9964 15.4134 38.7895Z" fill="#AF7DFF"/>
</svg>
