<svg width="73" height="55" viewBox="0 0 73 55" fill="none" xmlns="http://www.w3.org/2000/svg">
<path d="M62.7804 31.2222C60.2441 31.2353 58.0399 31.8403 56.1942 32.7347C55.517 31.4063 54.8398 30.2226 54.7203 29.3546C54.5875 28.3419 54.4281 27.7237 54.5875 26.5137C54.7468 25.3037 55.4639 23.5808 55.4506 23.4493C55.4373 23.3177 55.2912 22.6996 53.8306 22.6864C52.3699 22.6733 51.1085 22.9626 50.9624 23.3441C50.8164 23.7255 50.5375 24.5935 50.3516 25.4878C50.0993 26.8031 47.4303 31.4984 45.9033 33.9578C45.412 32.9977 44.9871 32.156 44.8941 31.4852C44.7613 30.4725 44.602 29.8544 44.7613 28.6444C44.9207 27.4344 45.6377 25.7114 45.6244 25.5799C45.6112 25.4484 45.4651 24.8302 44.0044 24.8171C42.5438 24.8039 41.2823 25.0933 41.1363 25.4747C40.9902 25.8561 40.8309 26.7505 40.5255 27.6185C40.2201 28.4865 36.6747 36.3252 35.7452 38.3506C35.2671 39.3896 34.8555 40.2182 34.5634 40.7838C34.5634 40.7838 34.5501 40.8232 34.5103 40.889C34.258 41.3756 34.1119 41.6387 34.1119 41.6387C34.1119 41.6387 34.1119 41.6387 34.1119 41.6518C33.9127 42.0069 33.7003 42.3357 33.594 42.3357C33.5144 42.3357 33.3683 41.3888 33.6206 40.0999C34.1517 37.3774 35.4132 33.1424 35.3999 32.9977C35.3999 32.9188 35.6389 32.1823 34.5766 31.8009C33.5409 31.4195 33.1691 32.0508 33.0762 32.0508C32.9832 32.0508 32.9168 32.2743 32.9168 32.2743C32.9168 32.2743 34.0721 27.5133 30.7126 27.5133C28.6146 27.5133 25.7198 29.7886 24.2857 31.8403C23.3828 32.327 21.4574 33.366 19.3992 34.4839C18.6158 34.9179 17.8058 35.3519 17.0489 35.7597C16.9958 35.7071 16.9427 35.6413 16.8896 35.5887C12.8263 31.2879 5.31065 28.2498 5.62934 22.476C5.74885 20.3717 6.47917 14.8478 20.0632 8.14019C31.2437 2.68206 40.1404 4.19456 41.6807 7.54835C43.8849 12.3357 36.9137 21.2266 25.3613 22.5155C20.9528 23.0021 18.6424 21.3186 18.0581 20.6873C17.4473 20.0297 17.3543 19.9903 17.1286 20.1218C16.7568 20.3191 16.9958 20.9109 17.1286 21.2529C17.4738 22.1472 18.8946 23.7255 21.2981 24.5014C23.4226 25.1854 28.588 25.5668 34.8422 23.1731C41.84 20.49 47.3108 13.0328 45.7041 6.78552C44.0974 0.446199 33.4745 -1.64499 23.4226 1.89293C17.4473 3.99727 10.9673 7.31161 6.30655 11.6255C0.769379 16.7548 -0.107007 21.2134 0.251515 23.081C1.53954 29.7097 10.7682 34.0236 14.4596 37.2195C14.2737 37.3248 14.1011 37.4168 13.955 37.4957C12.1093 38.4032 5.07164 42.0464 3.31887 45.8999C1.32708 50.2665 3.63755 53.3967 5.16459 53.8175C9.90504 55.1196 14.7783 52.7785 17.3942 48.9118C20.01 45.0451 19.6914 40.0209 18.483 37.7193C18.4697 37.693 18.4564 37.6667 18.4299 37.6404C18.9079 37.3642 19.3992 37.0749 19.8773 36.7987C20.82 36.2463 21.7495 35.7334 22.5463 35.3125C22.0948 36.5356 21.7628 37.9955 21.6035 40.0999C21.4043 42.5725 22.4267 45.7816 23.7679 47.0442C24.3654 47.5966 25.0692 47.6097 25.5207 47.6097C27.0875 47.6097 27.7913 46.3208 28.5747 44.7952C29.5308 42.9276 30.3939 40.7575 30.3939 40.7575C30.3939 40.7575 29.3183 46.6233 32.2396 46.6233C33.3019 46.6233 34.3775 45.2555 34.8555 44.5584V44.5716C34.8555 44.5716 34.8821 44.5321 34.9352 44.4401C35.0414 44.2691 35.1078 44.1639 35.1078 44.1639V44.1376C35.5327 43.401 36.4888 41.7307 37.9096 38.9556C39.742 35.3782 41.5081 30.9065 41.5081 30.9065C41.5081 30.9065 41.6674 31.9982 42.2118 33.8131C42.5305 34.8785 43.1945 36.049 43.7256 37.1801C43.3007 37.7719 43.0351 38.1007 43.0351 38.1007C43.0351 38.1007 43.0351 38.1007 43.0484 38.1139C42.7031 38.5611 42.3313 39.0477 41.9197 39.5212C40.4723 41.2309 38.7461 43.1906 38.5071 43.7561C38.2283 44.4269 38.2947 44.9135 38.8258 45.3081C39.2109 45.5975 39.9014 45.6369 40.6051 45.5975C41.9064 45.5054 42.8226 45.1897 43.2741 44.9925C43.9779 44.7426 44.8012 44.3611 45.5713 43.7956C46.9921 42.7566 47.8552 41.2704 47.7756 39.3107C47.7357 38.2323 47.3772 37.1538 46.939 36.1411C47.0718 35.9569 47.1913 35.7728 47.3241 35.5887C49.5682 32.3401 51.3077 28.7759 51.3077 28.7759C51.3077 28.7759 51.467 29.8675 52.0114 31.6825C52.277 32.6031 52.8214 33.6027 53.2994 34.576C51.1882 36.2726 49.8869 38.2454 49.4221 39.5343C48.5856 41.928 49.2362 43.0065 50.4711 43.2564C51.0288 43.3747 51.8255 43.1117 52.4098 42.8618C53.1534 42.6251 54.0298 42.2174 54.8663 41.6124C56.2871 40.5733 57.6548 39.1266 57.5752 37.1669C57.5353 36.2726 57.2963 35.3914 56.9643 34.5365C58.7569 33.8 61.0674 33.3923 64.0153 33.7342C70.3359 34.4708 71.5841 38.3769 71.345 40.0209C71.106 41.665 69.7782 42.5593 69.34 42.8355C68.9018 43.1117 68.7557 43.2038 68.7956 43.401C68.8487 43.6904 69.0611 43.6772 69.4329 43.6246C69.9508 43.5326 72.7526 42.2963 72.8721 39.2713C73.0713 35.4045 69.3533 31.1827 62.7804 31.2222ZM14.0214 47.5045C11.9234 49.7667 9.0021 50.6216 7.74063 49.8982C6.38622 49.1222 6.91736 45.7816 9.49341 43.3879C11.0603 41.928 13.0786 40.5733 14.4198 39.7448C14.7252 39.5606 15.1766 39.2976 15.7211 38.9688C15.814 38.9162 15.8671 38.8899 15.8671 38.8899C15.9734 38.8241 16.0796 38.7583 16.1858 38.6926C17.1286 42.1121 16.2256 45.124 14.0214 47.5045ZM29.2918 37.2195C28.5615 38.9819 27.0344 43.4931 26.1049 43.2432C25.3082 43.0328 24.8169 39.6132 25.9456 36.2331C26.5166 34.5365 27.7249 32.5111 28.4287 31.722C29.5706 30.4594 30.8321 30.0385 31.1375 30.5514C31.5226 31.2222 29.7432 36.1148 29.2918 37.2195ZM41.8931 43.1906C41.5877 43.3484 41.2956 43.4537 41.1628 43.3747C41.0699 43.3221 41.2956 43.1117 41.2956 43.1117C41.2956 43.1117 42.8758 41.4282 43.4999 40.6654C43.8584 40.2182 44.2833 39.6921 44.7348 39.1003V39.2713C44.7348 41.2836 42.7695 42.6382 41.8931 43.1906ZM51.6131 40.9942C51.3873 40.8364 51.4272 40.3103 52.1841 38.6663C52.4762 38.0218 53.1667 36.9434 54.3485 35.9043C54.4812 36.3252 54.5742 36.7329 54.5609 37.1143C54.5476 39.6527 52.7152 40.5996 51.6131 40.9942Z" fill="#F784BC"/>
</svg>
