<svg width="56" height="56" viewBox="0 0 56 56" fill="none" xmlns="http://www.w3.org/2000/svg">
<g clip-path="url(#clip0_144_264)">
<path d="M42.875 0H13.125C5.87626 0 0 5.87626 0 13.125V42.875C0 50.1237 5.87626 56 13.125 56H42.875C50.1237 56 56 50.1237 56 42.875V13.125C56 5.87626 50.1237 0 42.875 0Z" fill="#023430"/>
<path d="M37.4441 23.5355C35.1391 13.3678 30.3353 10.661 29.1099 8.74759C28.6043 7.90481 28.1566 7.02859 27.7701 6.125C27.7053 7.02844 27.5863 7.59719 26.8185 8.28231C25.277 9.65672 18.7298 14.992 18.1787 26.5449C17.6653 37.3166 26.0975 43.9585 27.2114 44.6451C28.068 45.0667 29.1112 44.6541 29.6202 44.2671C33.6848 41.4776 39.2385 34.0406 37.4484 23.5355" fill="#1FD069"/>
<path d="M28.1193 38.9092C27.9071 41.5753 27.7551 43.1245 27.2161 44.6481C27.2161 44.6481 27.5698 47.1862 27.8183 49.8749H28.6974C28.9074 47.9816 29.2276 46.1021 29.6564 44.246C28.5183 43.686 28.163 41.2487 28.1193 38.9092Z" fill="#B8C4C2"/>
<path d="M29.6548 44.2476C28.5047 43.7163 28.1719 41.2275 28.1207 38.9092C28.405 35.0848 28.488 31.2481 28.3692 27.415C28.3089 25.4038 28.3977 8.7867 27.8738 6.35376C28.232 7.17788 28.6449 7.97708 29.1099 8.74601C30.3354 10.6609 35.1407 13.3678 37.4441 23.5355C39.2385 34.0226 33.7151 41.4399 29.6548 44.2476Z" fill="#12BF65"/>
</g>
<defs>
<clipPath id="clip0_144_264">
<rect width="56" height="56" fill="white"/>
</clipPath>
</defs>
</svg>
