<svg width="56" height="56" viewBox="0 0 56 56" fill="none" xmlns="http://www.w3.org/2000/svg">
<g clip-path="url(#clip0_144_245)">
<path d="M42.875 0H13.125C5.87626 0 0 5.87626 0 13.125V42.875C0 50.1237 5.87626 56 13.125 56H42.875C50.1237 56 56 50.1237 56 42.875V13.125C56 5.87626 50.1237 0 42.875 0Z" fill="#242938"/>
<path d="M26.2232 6.80665C27.2993 6.19087 28.7006 6.18803 29.7755 6.80665C35.1835 9.86259 40.5931 12.9135 46.0002 15.9712C47.0174 16.5441 47.6975 17.6759 47.6872 18.8477V37.2326C47.6949 38.453 46.9474 39.6119 45.8744 40.1717C40.4842 43.2108 35.0966 46.2534 29.7073 49.2925C28.6094 49.9203 27.1798 49.872 26.1158 49.1925C24.4999 48.2558 22.8812 47.3235 21.265 46.3877C20.9347 46.1908 20.5624 46.0342 20.3292 45.714C20.5355 45.4361 20.9041 45.4016 21.2036 45.2802C21.878 45.0656 22.4977 44.7213 23.1172 44.3872C23.274 44.2801 23.4652 44.3212 23.6155 44.417C24.9974 45.2093 26.3672 46.0248 27.7536 46.8095C28.0494 46.9803 28.3488 46.7535 28.6017 46.6126C33.8911 43.6229 39.187 40.6449 44.4757 37.6543C44.6717 37.5601 44.78 37.352 44.764 37.1374C44.7678 31.0726 44.7649 25.0069 44.766 18.9418C44.7883 18.6986 44.6474 18.4746 44.4272 18.3748C39.0558 15.3497 33.6868 12.3202 28.3162 9.2945C28.2232 9.23057 28.113 9.19626 28.0001 9.19606C27.8872 9.19587 27.7769 9.2298 27.6836 9.2934C22.3129 12.3202 16.9452 15.3528 11.5744 18.3774C11.355 18.4774 11.2078 18.6977 11.2338 18.9418C11.2349 25.0069 11.2338 31.0726 11.2338 37.1383C11.2244 37.2431 11.2474 37.3482 11.2997 37.4395C11.352 37.5308 11.431 37.6039 11.5261 37.6489C12.9591 38.4615 14.3941 39.2685 15.8282 40.0785C16.6363 40.5132 17.6281 40.7717 18.5184 40.4386C19.3037 40.1568 19.8543 39.3551 19.8394 38.5212C19.8469 32.4918 19.8357 26.4616 19.8449 20.4328C19.8252 20.1653 20.0792 19.9441 20.3395 19.9695C21.0281 19.9647 21.7176 19.9601 22.4063 19.9712C22.6937 19.9647 22.8914 20.253 22.856 20.5225C22.8532 26.5902 22.8634 32.6579 22.8514 38.7253C22.8532 40.3426 22.1888 42.1022 20.693 42.8934C18.8505 43.8478 16.5729 43.6455 14.7524 42.7302C13.1765 41.9436 11.6724 41.0152 10.1245 40.1726C9.04873 39.6159 8.30498 38.4523 8.31264 37.2328V18.8477C8.30126 17.6516 9.0087 16.4992 10.0572 15.9347C15.4465 12.8934 20.835 9.84947 26.2232 6.80665Z" fill="#9EFF42"/>
<path d="M30.9251 19.5421C33.2756 19.3908 35.7918 19.4525 37.9069 20.6105C39.5447 21.4978 40.4525 23.3602 40.4814 25.1796C40.4357 25.4248 40.1791 25.5602 39.9448 25.5433C39.263 25.5425 38.5807 25.5527 37.8988 25.5387C37.6094 25.5499 37.4414 25.2832 37.4051 25.0275C37.2091 24.1569 36.7342 23.2948 35.915 22.8748C34.6572 22.2452 33.199 22.277 31.8274 22.2901C30.8262 22.343 29.7495 22.4299 28.9012 23.0185C28.25 23.4646 28.0522 24.3649 28.2846 25.0901C28.5037 25.6107 29.1047 25.7787 29.5966 25.9336C32.4292 26.6745 35.4309 26.6006 38.2095 27.5755C39.3599 27.973 40.4851 28.7458 40.8789 29.9503C41.394 31.5646 41.1683 33.494 40.0196 34.7899C39.0882 35.8563 37.7317 36.4369 36.3787 36.7521C34.5789 37.1535 32.711 37.1638 30.8831 36.9855C29.1644 36.7895 27.3757 36.338 26.0489 35.167C24.9143 34.1818 24.3602 32.6466 24.4151 31.1652C24.4282 30.915 24.6774 30.7404 24.9171 30.761C25.6038 30.7555 26.2907 30.7535 26.9773 30.7621C27.2518 30.7424 27.4551 30.9795 27.4693 31.2381C27.5957 32.0673 27.9074 32.938 28.6308 33.4295C30.0265 34.3301 31.778 34.2684 33.3762 34.2936C34.7003 34.2349 36.1867 34.2172 37.2671 33.342C37.8372 32.8428 38.006 32.0076 37.852 31.2892C37.6851 30.6826 37.0505 30.4 36.5056 30.2152C33.7093 29.3308 30.674 29.6517 27.9048 28.6513C26.7804 28.2541 25.6932 27.5029 25.2614 26.3479C24.6588 24.7132 24.9348 22.6911 26.2038 21.4391C27.4411 20.1934 29.2269 19.7136 30.9251 19.5421Z" fill="#9EFF42"/>
</g>
<defs>
<clipPath id="clip0_144_245">
<rect width="56" height="56" fill="white"/>
</clipPath>
</defs>
</svg>
