<svg width="56" height="56" viewBox="0 0 56 56" fill="none" xmlns="http://www.w3.org/2000/svg">
<g clip-path="url(#clip0_144_294)">
<path d="M42.875 0H13.125C5.87626 0 0 5.87626 0 13.125V42.875C0 50.1237 5.87626 56 13.125 56H42.875C50.1237 56 56 50.1237 56 42.875V13.125C56 5.87626 50.1237 0 42.875 0Z" fill="#F03C2E"/>
<mask id="mask0_144_294" style="mask-type:luminance" maskUnits="userSpaceOnUse" x="6" y="6" width="44" height="44">
<path d="M6.125 6.125H49.875V49.875H6.125V6.125Z" fill="white"/>
</mask>
<g mask="url(#mask0_144_294)">
<path d="M49.0502 26.0517L29.9491 6.95067C29.5553 6.55642 29.0533 6.28791 28.5068 6.17914C27.9603 6.07038 27.3937 6.12626 26.879 6.33971C26.5373 6.4815 26.2268 6.6891 25.9653 6.95067L22.0004 10.9155L27.0317 15.9468C28.202 15.5366 29.5418 15.8168 30.4741 16.7494C30.918 17.194 31.2279 17.7545 31.3684 18.3669C31.5088 18.9792 31.4742 19.6188 31.2684 20.2124L36.1179 25.0619C37.291 24.6572 38.6445 24.9181 39.5809 25.8575C40.0501 26.3263 40.3695 26.9239 40.4988 27.5744C40.6282 28.225 40.5615 28.8992 40.3074 29.5119C39.9667 30.3333 39.3139 30.9858 38.4923 31.326C37.6707 31.6662 36.7476 31.6662 35.926 31.326C35.5192 31.1573 35.1495 30.9104 34.8382 30.5989C33.8538 29.6145 33.6106 28.1653 34.1082 26.9525L29.5856 22.4299V34.3314C29.9139 34.4938 30.2139 34.708 30.4741 34.9658C31.1029 35.5945 31.4561 36.4473 31.4561 37.3365C31.4561 38.2257 31.1029 39.0784 30.4741 39.7072C29.8454 40.3359 28.9926 40.6892 28.1034 40.6892C27.2143 40.6892 26.3615 40.3359 25.7327 39.7072C25.2635 39.2385 24.9439 38.6411 24.8144 37.9906C24.6849 37.3401 24.7513 36.6659 25.0052 36.0532C25.1738 35.6464 25.421 35.2768 25.7327 34.9658C26.0567 34.6431 26.4163 34.3983 26.8306 34.2343V22.222C26.4195 22.0541 26.0462 21.8054 25.7327 21.4908C25.262 21.0205 24.942 20.4208 24.8134 19.7679C24.6848 19.1151 24.7536 18.4388 25.0109 17.8252L20.0481 12.8655L6.95042 25.9493C6.55613 26.3434 6.28757 26.8455 6.17874 27.3922C6.0699 27.9389 6.12568 28.5056 6.33902 29.0206C6.48089 29.3624 6.68864 29.6731 6.95042 29.9347L26.0528 49.0342C26.3143 49.2958 26.6248 49.5034 26.9665 49.6452C27.657 49.9307 28.4325 49.9307 29.1229 49.6452C29.4646 49.5034 29.7751 49.2958 30.0366 49.0342L49.0502 30.0509C49.312 29.7893 49.5197 29.4787 49.6614 29.1368C49.8031 28.7949 49.8761 28.4284 49.8762 28.0583C49.8761 27.6882 49.8032 27.3216 49.6614 26.9797C49.5197 26.6378 49.312 26.3271 49.0502 26.0655" fill="white"/>
</g>
</g>
<defs>
<clipPath id="clip0_144_294">
<rect width="56" height="56" fill="white"/>
</clipPath>
</defs>
</svg>
