<svg width="86" height="52" viewBox="0 0 86 52" fill="none" xmlns="http://www.w3.org/2000/svg">
<g clip-path="url(#clip0_138_104)">
<path d="M43 0C31.5781 0 24.5234 5.74026 21.5 17.2208C25.8672 11.4805 30.9062 9.45455 36.6172 10.8052C39.9766 11.4805 41.9922 13.8442 44.6797 16.5455C49.0469 20.9351 53.75 26 64.5 26C75.9219 26 82.9766 20.2597 86 8.77922C81.6328 14.5195 76.5938 16.5455 70.8828 15.1948C67.5234 14.1818 65.5078 11.8182 62.8203 9.11688C58.4531 5.06494 53.75 0 43 0ZM21.5 26C10.0781 26 3.02344 31.7403 0 43.2208C4.36719 37.4805 9.40625 35.4545 15.1172 36.8052C18.4766 37.4805 20.4922 39.8442 23.1797 42.5455C27.5469 46.9351 32.25 52 43 52C54.4219 52 61.4766 46.2597 64.5 34.4416C60.1328 40.1818 55.0938 42.5455 49.3828 41.1948C46.0234 40.1818 44.0078 37.8182 41.3203 35.1169C36.9531 31.0649 32.25 26 21.5 26Z" fill="url(#paint0_linear_138_104)"/>
</g>
<defs>
<linearGradient id="paint0_linear_138_104" x1="-240.8" y1="1664" x2="7214.68" y2="5934" gradientUnits="userSpaceOnUse">
<stop stop-color="#2298BD"/>
<stop offset="1" stop-color="#0ED7B5"/>
</linearGradient>
<clipPath id="clip0_138_104">
<rect width="86" height="52" fill="white"/>
</clipPath>
</defs>
</svg>
