<svg width="25" height="25" viewBox="0 0 25 25" fill="none" xmlns="http://www.w3.org/2000/svg">
<path d="M23.3959 6.25002C22.5938 6.6146 21.7292 6.85419 20.8334 6.96877C21.7501 6.41669 22.4584 5.54169 22.7917 4.4896C21.9272 5.01044 20.9688 5.37502 19.9584 5.58335C19.1355 4.68752 17.9792 4.16669 16.6667 4.16669C14.2188 4.16669 12.2188 6.16669 12.2188 8.63544C12.2188 8.9896 12.2605 9.33335 12.3334 9.65627C8.62508 9.46877 5.323 7.68752 3.12508 4.9896C2.73966 5.64585 2.52091 6.41669 2.52091 7.22919C2.52091 8.78127 3.30216 10.1563 4.5105 10.9375C3.77091 10.9375 3.08341 10.7292 2.47925 10.4167V10.4479C2.47925 12.6146 4.02091 14.4271 6.06258 14.8334C5.4072 15.0135 4.71887 15.0385 4.05216 14.9063C4.33509 15.7943 4.88918 16.5713 5.63656 17.1281C6.38393 17.6849 7.287 17.9935 8.21883 18.0104C6.63932 19.261 4.68134 19.9369 2.66675 19.9271C2.31258 19.9271 1.95841 19.9063 1.60425 19.8646C3.58341 21.1354 5.93758 21.875 8.45841 21.875C16.6667 21.875 21.1772 15.0625 21.1772 9.15627C21.1772 8.95835 21.1772 8.77085 21.1667 8.57294C22.0417 7.94794 22.7917 7.15627 23.3959 6.25002Z" fill="white"/>
</svg>
