<svg width="58" height="56" viewBox="0 0 58 56" fill="none" xmlns="http://www.w3.org/2000/svg">
<path d="M47.9006 0H9.53526C4.26908 0 0 4.26908 0 9.53526V46.4647C0 51.7309 4.26908 56 9.53526 56H47.9006C53.1668 56 57.4359 51.7309 57.4359 46.4647V9.53526C57.4359 4.26908 53.1668 0 47.9006 0Z" fill="#470137"/>
<path d="M30.1936 14.727L23.0269 26.5557L30.6944 39.1165C30.7436 39.2043 30.7574 39.3077 30.7329 39.4054C30.721 39.4471 30.6954 39.4574 30.6562 39.4589L30.6125 39.4583L30.5597 39.4569C30.531 39.4568 30.4988 39.4583 30.4633 39.4641L24.9351 39.464L24.8264 39.4624C24.5284 39.4546 24.3138 39.412 24.1828 39.1935C23.6687 38.1917 23.155 37.1964 22.6417 36.2074C22.1918 35.3424 21.7176 34.4624 21.2193 33.5673L21.0042 33.1828C20.4262 32.1558 19.8547 31.1155 19.2896 30.0619H19.251C18.7369 31.0895 18.2039 32.117 17.652 33.1443C17.0994 34.172 16.5536 35.193 16.0145 36.2074C15.4751 37.2224 14.9229 38.2306 14.3578 39.232C14.2669 39.436 14.1161 39.4786 13.9056 39.4858L13.8183 39.4871H8.53976L8.51692 39.4877L8.44141 39.4946C8.3995 39.497 8.37447 39.488 8.36634 39.4247C8.35185 39.3307 8.37244 39.2347 8.42419 39.1549L15.8604 26.9409L8.61676 14.6884C8.53976 14.5861 8.5269 14.5027 8.5782 14.438C8.63588 14.3714 8.72152 14.3357 8.80945 14.3417H14.2421C14.3606 14.3352 14.479 14.3549 14.5889 14.3995C14.681 14.4517 14.7601 14.5242 14.8201 14.6114C15.2824 15.639 15.7962 16.6665 16.3612 17.6938C16.926 18.7215 17.4975 19.7361 18.0758 20.7377C18.6538 21.7394 19.1868 22.7541 19.6749 23.7815H19.7134C20.2269 22.7286 20.747 21.7011 21.2739 20.6992C21.8001 19.6974 22.3395 18.6892 22.8921 17.6745C23.4442 16.6601 23.9772 15.6519 24.4911 14.6499C24.5206 14.5548 24.5736 14.4687 24.6452 14.3995C24.7403 14.3512 24.8473 14.3311 24.9535 14.3417H30.0008C30.1011 14.3169 30.2051 14.365 30.2513 14.4573C30.2932 14.5412 30.2772 14.6414 30.2139 14.7081L30.1936 14.727ZM41.517 39.9612L41.2512 39.9641C39.4777 39.9911 37.7206 39.6225 36.1074 38.8853C34.6046 38.1897 33.3484 37.0544 32.5049 35.6295C31.6543 34.2168 31.2178 32.4566 31.1957 30.3491L31.1949 30.1775C31.1804 28.4091 31.6322 26.6682 32.5049 25.1301C33.3789 23.6069 34.6527 22.3529 36.1872 21.503L36.3194 21.4312C37.9887 20.5065 40.0051 20.0441 42.3685 20.0441L42.4719 20.0453L42.5899 20.0489L42.7224 20.055L42.8694 20.0634L43.1167 20.0808L43.3967 20.1033L43.6015 20.1212V12.5308C43.6015 12.3514 43.6786 12.2611 43.8327 12.2611H48.6874C48.7511 12.252 48.8153 12.2734 48.8608 12.3189C48.9063 12.3643 48.9277 12.4286 48.9186 12.4922V35.2634C48.9186 35.6459 48.9334 36.0575 48.9628 36.4983L49.0347 37.498L49.0728 38.0761C49.0824 38.2399 48.9906 38.3929 48.8415 38.4614C47.5891 38.9838 46.2846 39.3712 44.9501 39.6173C43.817 39.8264 42.6687 39.9414 41.517 39.9612ZM43.6014 35.1864V24.6677C43.3932 24.6113 43.1805 24.5726 42.9658 24.5521C42.7033 24.5257 42.4396 24.5129 42.1758 24.5136C41.2409 24.5043 40.3168 24.7155 39.4787 25.1301C38.6625 25.5358 37.9655 26.1465 37.456 26.9024C36.9474 27.6465 36.6844 28.618 36.667 29.817L36.6661 29.9463C36.6473 30.7862 36.7845 31.6223 37.0706 32.4122C37.3035 33.0487 37.6716 33.6271 38.1495 34.1075C38.6071 34.5496 39.161 34.8794 39.7677 35.0708C40.4086 35.2783 41.0784 35.3824 41.752 35.3792C42.1115 35.3792 42.4454 35.3662 42.7538 35.3405C42.9999 35.322 43.2438 35.2814 43.4825 35.2192L43.6014 35.1864Z" fill="#FF61F6"/>
</svg>
